C.sfdir
StartChar: exclam
Encoding: 33 33 4
Width: 356
VWidth: 1754
Flags: W
LayerCount: 2
Fore
SplineSet
248 1000 m 1,0,-1
 218 252 l 1,1,-1
 140 252 l 1,2,-1
 108 1000 l 1,3,-1
 248 1000 l 1,0,-1
252 60 m 0,4,5
 252 29 252 29 230.5 7.5 c 128,-1,6
 209 -14 209 -14 178 -14 c 0,7,8
 145 -14 145 -14 124.5 6.5 c 128,-1,9
 104 27 104 27 104 60 c 0,10,11
 104 89 104 89 125 109.5 c 128,-1,12
 146 130 146 130 178 130 c 0,13,14
 207 130 207 130 229.5 109.5 c 128,-1,15
 252 89 252 89 252 60 c 0,4,5
EndSplineSet
EndChar
StartChar: quotedbl
Encoding: 34 34 5
Width: 380
Flags: W
LayerCount: 2
Fore
SplineSet
315 584 m 1,0,-1
 301 348 l 1,1,-1
 240 348 l 1,2,-1
 225 584 l 1,3,-1
 315 584 l 1,0,-1
154 584 m 1,4,-1
 139 348 l 1,5,-1
 78 348 l 1,6,-1
 63 584 l 1,7,-1
 154 584 l 1,4,-1
EndSplineSet
EndChar
StartChar: numbersign
Encoding: 35 35 6
Width: 880
VWidth: 1754
Flags: W
LayerCount: 2
Fore
SplineSet
820 719 m 1,0,-1
 803 596 l 1,1,-1
 659 596 l 1,2,-1
 639 421 l 1,3,-1
 779 421 l 1,4,-1
 761 298 l 1,5,-1
 617 298 l 1,6,-1
 576 0 l 1,7,-1
 445 0 l 1,8,-1
 488 298 l 1,9,-1
 331 298 l 1,10,-1
 288 0 l 1,11,-1
 164 0 l 1,12,-1
 207 298 l 1,13,-1
 60 298 l 1,14,-1
 77 421 l 1,15,-1
 221 421 l 1,16,-1
 245 596 l 1,17,-1
 101 596 l 1,18,-1
 120 719 l 1,19,-1
 264 719 l 1,20,-1
 301 1000 l 1,21,-1
 432 1000 l 1,22,-1
 389 719 l 1,23,-1
 546 719 l 1,24,-1
 586 1000 l 1,25,-1
 716 1000 l 1,26,-1
 677 719 l 1,27,-1
 820 719 l 1,0,-1
529 596 m 1,28,-1
 372 596 l 1,29,-1
 351 421 l 1,30,-1
 505 421 l 1,31,-1
 529 596 l 1,28,-1
EndSplineSet
EndChar
StartChar: dollar
Encoding: 36 36 7
Width: 739
VWidth: 1754
Flags: W
LayerCount: 2
Fore
SplineSet
649 277 m 0,0,1
 649 174 649 174 599.5 96.5 c 128,-1,2
 550 19 550 19 459 -7 c 1,3,-1
 459 -144 l 1,4,-1
 319 -144 l 1,5,-1
 319 -14 l 1,6,7
 213 1 213 1 152 82.5 c 128,-1,8
 91 164 91 164 91 281 c 2,9,-1
 91 295 l 1,10,-1
 228 295 l 1,11,-1
 228 284 l 2,12,13
 228 215 228 215 268 169 c 128,-1,14
 308 123 308 123 368 123 c 0,15,16
 426 123 426 123 467.5 168.5 c 128,-1,17
 509 214 509 214 509 277 c 0,18,19
 509 349 509 349 432 418 c 0,20,21
 413 435 413 435 264 536 c 0,22,23
 137 622 137 622 137 757 c 0,24,25
 137 853 137 853 183.5 920 c 128,-1,26
 230 987 230 987 319 1007 c 1,27,-1
 319 1148 l 1,28,-1
 459 1148 l 1,29,-1
 459 1011 l 1,30,31
 644 972 644 972 649 757 c 1,32,-1
 509 757 l 1,33,34
 507 810 507 810 474.5 842 c 128,-1,35
 442 874 442 874 392 874 c 0,36,37
 344 874 344 874 310.5 840.5 c 128,-1,38
 277 807 277 807 277 757 c 0,39,40
 277 719 277 719 296 695 c 128,-1,41
 315 671 315 671 368 639 c 1,42,43
 649 483 649 483 649 277 c 0,0,1
EndSplineSet
EndChar
StartChar: ampersand
Encoding: 38 38 8
Width: 561
Flags: W
LayerCount: 2
Fore
SplineSet
561 0 m 1,0,-1
 461 0 l 1,1,-1
 399 72 l 1,2,3
 368 35 368 35 322 12.5 c 128,-1,4
 276 -10 276 -10 229 -10 c 0,5,6
 153 -10 153 -10 103 38 c 128,-1,7
 53 86 53 86 53 158 c 0,8,9
 53 268 53 268 174 328 c 1,10,11
 165 338 165 338 154.5 352.5 c 128,-1,12
 144 367 144 367 141 371 c 0,13,14
 113 413 113 413 113 461 c 0,15,16
 113 518 113 518 150.5 555 c 128,-1,17
 188 592 188 592 248 592 c 0,18,19
 309 592 309 592 347 556 c 128,-1,20
 385 520 385 520 385 463 c 0,21,22
 385 419 385 419 360 379 c 128,-1,23
 335 339 335 339 291 313 c 1,24,-1
 391 195 l 1,25,26
 408 236 408 236 408 285 c 1,27,-1
 477 285 l 1,28,29
 477 192 477 192 442 137 c 1,30,-1
 561 0 l 1,0,-1
311 457 m 128,-1,32
 311 483 311 483 294 500.5 c 128,-1,33
 277 518 277 518 252 518 c 128,-1,34
 227 518 227 518 210.5 503 c 128,-1,35
 194 488 194 488 195 463 c 0,36,37
 195 443 195 443 204 424 c 128,-1,38
 213 405 213 405 220.5 396 c 128,-1,39
 228 387 228 387 246 367 c 1,40,41
 282 390 282 390 296.5 410.5 c 128,-1,31
 311 431 311 431 311 457 c 128,-1,32
352 127 m 1,42,-1
 221 276 l 1,43,44
 135 234 135 234 135 162 c 0,45,46
 135 118 135 118 162.5 89.5 c 128,-1,47
 190 61 190 61 233 61 c 0,48,49
 292 61 292 61 352 127 c 1,42,-1
EndSplineSet
EndChar
StartChar: quotesingle
Encoding: 39 39 9
Width: 241
VWidth: 1754
Flags: W
LayerCount: 2
Fore
SplineSet
201 911 m 0,0,1
 201 808 201 808 121 738 c 1,2,-1
 78 771 l 1,3,4
 121 814 121 814 131 848 c 1,5,-1
 121 848 l 2,6,7
 85 848 85 848 62.5 867.5 c 128,-1,8
 40 887 40 887 40 921.5 c 128,-1,9
 40 956 40 956 64 979 c 128,-1,10
 88 1002 88 1002 121 1002 c 0,11,12
 159 1002 159 1002 180 978 c 128,-1,13
 201 954 201 954 201 911 c 0,0,1
EndSplineSet
EndChar
StartChar: parenleft
Encoding: 40 40 10
Width: 247
Flags: W
LayerCount: 2
Fore
SplineSet
225 584 m 1,0,1
 221 580 221 580 215 572.5 c 128,-1,2
 209 565 209 565 193 538.5 c 128,-1,3
 177 512 177 512 165 481 c 128,-1,4
 153 450 153 450 143 398.5 c 128,-1,5
 133 347 133 347 133 291 c 128,-1,6
 133 235 133 235 142.5 184.5 c 128,-1,7
 152 134 152 134 165 102 c 128,-1,8
 178 70 178 70 191 45.5 c 128,-1,9
 204 21 204 21 214 10 c 2,10,-1
 223 0 l 1,11,-1
 141 0 l 1,12,13
 137 4 137 4 131.5 11 c 128,-1,14
 126 18 126 18 110.5 44.5 c 128,-1,15
 95 71 95 71 83.5 101.5 c 128,-1,16
 72 132 72 132 62.5 183.5 c 128,-1,17
 53 235 53 235 53 291 c 128,-1,18
 53 347 53 347 62.5 397.5 c 128,-1,19
 72 448 72 448 85 480.5 c 128,-1,20
 98 513 98 513 111 537.5 c 128,-1,21
 124 562 124 562 134 573 c 2,22,-1
 143 584 l 1,23,-1
 225 584 l 1,0,1
EndSplineSet
EndChar
StartChar: parenright
Encoding: 41 41 11
Width: 435
VWidth: 1754
Flags: W
LayerCount: 2
Fore
SplineSet
335 498 m 0,0,1
 335 347 335 347 296.5 222.5 c 128,-1,2
 258 98 258 98 220 48 c 2,3,-1
 183 0 l 1,4,-1
 44 0 l 1,5,6
 51 7 51 7 61 20 c 128,-1,7
 71 33 71 33 97.5 78 c 128,-1,8
 124 123 124 123 144.5 175.5 c 128,-1,9
 165 228 165 228 181.5 315.5 c 128,-1,10
 198 403 198 403 198 498.5 c 128,-1,11
 198 594 198 594 181.5 681.5 c 128,-1,12
 165 769 165 769 142 824.5 c 128,-1,13
 119 880 119 880 96 922 c 128,-1,14
 73 964 73 964 56 983 c 2,15,-1
 40 1000 l 1,16,-1
 179 1000 l 1,17,18
 186 993 186 993 196.5 980.5 c 128,-1,19
 207 968 207 968 233.5 922.5 c 128,-1,20
 260 877 260 877 280.5 824 c 128,-1,21
 301 771 301 771 318 682.5 c 128,-1,22
 335 594 335 594 335 498 c 0,0,1
EndSplineSet
EndChar
StartChar: asterisk
Encoding: 42 42 12
Width: 676
VWidth: 1754
Flags: W
LayerCount: 2
Fore
SplineSet
596 750 m 1,0,-1
 502 726 l 1,1,2
 476 716 476 716 449 716 c 1,3,4
 454 709 454 709 465 696 c 128,-1,5
 476 683 476 683 481 677 c 0,6,7
 496 660 496 660 546 593 c 1,8,-1
 438 509 l 1,9,10
 378 579 378 579 368 593 c 2,11,-1
 341 635 l 1,12,-1
 308 593 l 1,13,-1
 245 509 l 1,14,-1
 134 589 l 1,15,16
 170 642 170 642 190 666 c 1,17,18
 217 704 217 704 231 716 c 1,19,20
 221 718 221 718 178 726 c 0,21,22
 154 731 154 731 81 754 c 1,23,-1
 116 884 l 1,24,25
 197 867 197 867 204 863 c 1,26,27
 231 860 231 860 271 846 c 1,28,29
 271 853 271 853 269 872.5 c 128,-1,30
 267 892 267 892 267 901 c 2,31,-1
 267 1000 l 1,32,-1
 411 1000 l 1,33,-1
 411 901 l 2,34,35
 411 894 411 894 409.5 873.5 c 128,-1,36
 408 853 408 853 408 843 c 1,37,38
 437 855 437 855 469 863 c 0,39,40
 490 870 490 870 526 877 c 2,41,-1
 562 884 l 1,42,-1
 596 750 l 1,0,-1
EndSplineSet
EndChar
StartChar: plus
Encoding: 43 43 13
Width: 413
Flags: W
LayerCount: 2
Fore
SplineSet
397 256 m 1,0,-1
 248 256 l 1,1,-1
 248 115 l 1,2,-1
 166 115 l 1,3,-1
 166 256 l 1,4,-1
 18 256 l 1,5,-1
 18 336 l 1,6,-1
 166 336 l 1,7,-1
 166 477 l 1,8,-1
 248 477 l 1,9,-1
 248 336 l 1,10,-1
 397 336 l 1,11,-1
 397 256 l 1,0,-1
EndSplineSet
EndChar
StartChar: comma
Encoding: 44 44 14
Width: 241
VWidth: 1754
Flags: W
LayerCount: 2
Fore
SplineSet
201 57 m 0,0,1
 201 -46 201 -46 121 -116 c 1,2,-1
 78 -84 l 1,3,4
 121 -41 121 -41 131 -7 c 1,5,-1
 121 -7 l 2,6,7
 85 -7 85 -7 62.5 13 c 128,-1,8
 40 33 40 33 40 67 c 128,-1,9
 40 101 40 101 64 124 c 128,-1,10
 88 147 88 147 121 147 c 0,11,12
 159 147 159 147 180 123.5 c 128,-1,13
 201 100 201 100 201 57 c 0,0,1
EndSplineSet
EndChar
StartChar: hyphen
Encoding: 45 45 15
AltUni2: 0000ad.ffffffff.0
Width: 241
Flags: W
LayerCount: 2
Fore
SplineSet
223 240 m 1,0,-1
 18 240 l 1,1,-1
 18 317 l 1,2,-1
 223 317 l 1,3,-1
 223 240 l 1,0,-1
EndSplineSet
EndChar
StartChar: period
Encoding: 46 46 16
Width: 139
Flags: W
LayerCount: 2
Fore
SplineSet
117 41 m 128,-1,1
 117 22 117 22 103 8 c 128,-1,2
 89 -6 89 -6 70 -6 c 128,-1,3
 51 -6 51 -6 37 8 c 128,-1,4
 23 22 23 22 23 41 c 128,-1,5
 23 60 23 60 37 74 c 128,-1,6
 51 88 51 88 70 88 c 128,-1,7
 89 88 89 88 103 74 c 128,-1,0
 117 60 117 60 117 41 c 128,-1,1
EndSplineSet
EndChar
StartChar: slash
Encoding: 47 47 17
Width: 428
Flags: W
LayerCount: 2
Fore
SplineSet
428 586 m 1,0,-1
 90 0 l 1,1,-1
 0 0 l 1,2,-1
 338 586 l 1,3,-1
 428 586 l 1,0,-1
EndSplineSet
Substitution2: "'frac' Diagonal Fractions in Latin lookup 1 subtable" fraction
EndChar
StartChar: zero
Encoding: 48 48 18
Width: 706
VWidth: 1754
Flags: W
LayerCount: 2
Fore
SplineSet
646.018 502 m 0,0,1
 646.018 279 646.018 279 589.018 154 c 1,2,3
 519.018 -17 519.018 -17 354.018 -17 c 0,4,5
 265.018 -17 265.018 -17 209.518 23 c 128,-1,6
 154.018 63 154.018 63 116.018 154 c 1,7,8
 59.0176 282 59.0176 282 60.0176 502 c 0,9,10
 60.0176 725 60.0176 725 116.018 850 c 0,11,12
 155.018 939 155.018 939 211.018 978 c 128,-1,13
 267.018 1017 267.018 1017 354.518 1017 c 128,-1,14
 442.018 1017 442.018 1017 496.518 978 c 128,-1,15
 551.018 939 551.018 939 589.018 846 c 1,16,17
 646.018 718 646.018 718 646.018 502 c 0,0,1
509.018 502 m 0,18,19
 509.018 641 509.018 641 478.018 750 c 0,20,21
 444.018 877 444.018 877 354.518 877 c 128,-1,22
 265.018 877 265.018 877 229.018 754 c 1,23,24
 196.018 650 196.018 650 197.018 498 c 0,25,26
 197.018 371 197.018 371 229.018 245 c 1,27,28
 263.018 123 263.018 123 354.018 123 c 0,29,30
 443.018 123 443.018 123 478.018 245 c 1,31,32
 509.018 348 509.018 348 509.018 502 c 0,18,19
EndSplineSet
Substitution2: "'sinf' Scientific Inferiors in Latin lookup 0 subtable" uni2080
EndChar
StartChar: one
Encoding: 49 49 19
Width: 239
Flags: W
LayerCount: 2
Fore
SplineSet
174 0 m 1,0,-1
 90 0 l 1,1,-1
 90 479 l 1,2,-1
 53 479 l 1,3,-1
 53 543 l 1,4,5
 101 546 101 546 119 584 c 1,6,-1
 174 584 l 1,7,-1
 174 0 l 1,0,-1
EndSplineSet
Substitution2: "'sinf' Scientific Inferiors in Latin lookup 0 subtable" uni2081
EndChar
StartChar: two
Encoding: 50 50 20
Width: 677
VWidth: 1754
Flags: W
LayerCount: 2
Fore
SplineSet
617 0 m 1,0,-1
 60 0 l 1,1,2
 69 161 69 161 108 274 c 1,3,4
 171 428 171 428 271 522 c 1,5,6
 312 558 312 558 396 617 c 0,7,8
 447 653 447 653 464 677 c 128,-1,9
 481 701 481 701 481 737 c 0,10,11
 481 795 481 795 440 836 c 128,-1,12
 399 877 399 877 341 877 c 128,-1,13
 283 877 283 877 241.5 836 c 128,-1,14
 200 795 200 795 200 737 c 1,15,-1
 60 737 l 1,16,17
 63 855 63 855 143 936 c 128,-1,18
 223 1017 223 1017 341 1017 c 0,19,20
 456 1017 456 1017 536.5 935 c 128,-1,21
 617 853 617 853 617 737 c 0,22,23
 617 619 617 619 533 540 c 1,24,25
 512 526 512 526 502 516 c 1,26,-1
 466 492 l 1,27,-1
 432 466 l 1,28,-1
 392 438 l 1,29,30
 344 402 344 402 299.5 340.5 c 128,-1,31
 255 279 255 279 235 218 c 1,32,33
 225 196 225 196 214 140 c 1,34,-1
 617 140 l 1,35,-1
 617 0 l 1,0,-1
EndSplineSet
Substitution2: "'sinf' Scientific Inferiors in Latin lookup 0 subtable" uni2082
EndChar
StartChar: three
Encoding: 51 51 21
Width: 677
VWidth: 1754
Flags: W
LayerCount: 2
Fore
SplineSet
617 271 m 0,0,1
 617 148 617 148 539 65.5 c 128,-1,2
 461 -17 461 -17 341 -17 c 128,-1,3
 221 -17 221 -17 143 61.5 c 128,-1,4
 65 140 65 140 60 264 c 1,5,-1
 200 264 l 1,6,7
 205 202 205 202 244.5 162.5 c 128,-1,8
 284 123 284 123 341 123 c 0,9,10
 401 123 401 123 441 165 c 128,-1,11
 481 207 481 207 481 271 c 0,12,13
 481 350 481 350 442.5 406 c 128,-1,14
 404 462 404 462 351 462 c 2,15,-1
 281 462 l 1,16,-1
 281 600 l 1,17,-1
 341 600 l 2,18,19
 380 600 380 600 415 639 c 0,20,21
 456 685 456 685 456 750 c 0,22,23
 456 808 456 808 425 842.5 c 128,-1,24
 394 877 394 877 341 877 c 0,25,26
 242 877 242 877 231 773 c 1,27,-1
 91 790 l 1,28,29
 101 891 101 891 171.5 954 c 128,-1,30
 242 1017 242 1017 341 1017 c 0,31,32
 449 1017 449 1017 521 942.5 c 128,-1,33
 593 868 593 868 593 761 c 0,34,35
 593 638 593 638 502 533 c 1,36,37
 617 429 617 429 617 271 c 0,0,1
EndSplineSet
Substitution2: "'sinf' Scientific Inferiors in Latin lookup 0 subtable" uni2083
EndChar
StartChar: four
Encoding: 52 52 22
Width: 738
VWidth: 1754
Flags: W
LayerCount: 2
Fore
SplineSet
648 242 m 1,0,-1
 588 242 l 1,1,-1
 588 0 l 1,2,-1
 444 0 l 1,3,-1
 444 242 l 1,4,-1
 30 242 l 1,5,-1
 30 344 l 1,6,-1
 444 1000 l 1,7,-1
 588 1000 l 1,8,-1
 588 375 l 1,9,-1
 648 375 l 1,10,-1
 648 242 l 1,0,-1
444 375 m 1,11,-1
 444 750 l 1,12,-1
 206 375 l 1,13,-1
 444 375 l 1,11,-1
EndSplineSet
Substitution2: "'sinf' Scientific Inferiors in Latin lookup 0 subtable" uni2084
EndChar
StartChar: five
Encoding: 53 53 23
Width: 395
Flags: W
LayerCount: 2
Fore
SplineSet
360 205 m 0,0,1
 360 113 360 113 308 51.5 c 128,-1,2
 256 -10 256 -10 178 -10 c 0,3,4
 101 -10 101 -10 35 41 c 1,5,-1
 90 100 l 1,6,7
 131 72 131 72 170 72 c 0,8,9
 217 72 217 72 248 110.5 c 128,-1,10
 279 149 279 149 279 209 c 0,11,12
 279 256 279 256 257.5 283.5 c 128,-1,13
 236 311 236 311 199 311 c 0,14,15
 160 311 160 311 129 283 c 1,16,-1
 49 293 l 1,17,-1
 63 584 l 1,18,-1
 338 584 l 1,19,-1
 338 502 l 1,20,-1
 141 502 l 1,21,-1
 135 379 l 1,22,23
 170 391 170 391 201 391 c 0,24,25
 272 391 272 391 316 339.5 c 128,-1,26
 360 288 360 288 360 205 c 0,0,1
EndSplineSet
Substitution2: "'sinf' Scientific Inferiors in Latin lookup 0 subtable" uni2085
EndChar
StartChar: six
Encoding: 54 54 24
Width: 432
Flags: W
LayerCount: 2
Fore
SplineSet
379 176 m 128,-1,1
 379 92 379 92 334.5 41 c 128,-1,2
 290 -10 290 -10 215 -10 c 0,3,4
 136 -10 136 -10 94.5 45 c 128,-1,5
 53 100 53 100 53 201 c 0,6,7
 53 308 53 308 106.5 411.5 c 128,-1,8
 160 515 160 515 254 588 c 1,9,-1
 301 522 l 1,10,11
 264 494 264 494 228.5 447.5 c 128,-1,12
 193 401 193 401 178 360 c 1,13,14
 192 362 192 362 215 362 c 0,15,16
 290 362 290 362 334.5 311 c 128,-1,0
 379 260 379 260 379 176 c 128,-1,1
297 176 m 128,-1,18
 297 222 297 222 274 252.5 c 128,-1,19
 251 283 251 283 215 283 c 128,-1,20
 179 283 179 283 156 254.5 c 128,-1,21
 133 226 133 226 133 184 c 0,22,23
 133 134 133 134 155.5 103 c 128,-1,24
 178 72 178 72 215 72 c 128,-1,25
 252 72 252 72 274.5 101 c 128,-1,17
 297 130 297 130 297 176 c 128,-1,18
EndSplineSet
Substitution2: "'sinf' Scientific Inferiors in Latin lookup 0 subtable" uni2086
EndChar
StartChar: seven
Encoding: 55 55 25
Width: 680
VWidth: 1754
Flags: W
LayerCount: 2
Fore
SplineSet
589 860 m 1,0,1
 459 709 459 709 375 469 c 0,2,3
 305 263 305 263 295 0 c 1,4,-1
 154 0 l 1,5,-1
 154 21 l 2,6,7
 154 189 154 189 214 421 c 0,8,9
 272 642 272 642 408 860 c 1,10,-1
 31 860 l 1,11,-1
 31 1000 l 1,12,-1
 589 1000 l 1,13,-1
 589 860 l 1,0,1
EndSplineSet
Substitution2: "'sinf' Scientific Inferiors in Latin lookup 0 subtable" uni2087
EndChar
StartChar: eight
Encoding: 56 56 26
Width: 395
Flags: W
LayerCount: 2
Fore
SplineSet
360 172 m 0,0,1
 360 81 360 81 305 29 c 1,2,3
 266 -10 266 -10 199 -10 c 0,4,5
 115 -10 115 -10 72 51 c 0,6,7
 35 104 35 104 35 172 c 0,8,9
 35 262 35 262 90 317 c 1,10,11
 43 367 43 367 43 438 c 0,12,13
 43 506 43 506 86.5 550 c 128,-1,14
 130 594 130 594 199 594 c 0,15,16
 266 594 266 594 309 550 c 128,-1,17
 352 506 352 506 352 438 c 0,18,19
 352 364 352 364 305 317 c 1,20,21
 360 265 360 265 360 172 c 0,0,1
270 438 m 0,22,23
 270 470 270 470 250 491 c 128,-1,24
 230 512 230 512 199 512 c 0,25,26
 167 512 167 512 146 491 c 128,-1,27
 125 470 125 470 125 438 c 0,28,29
 125 403 125 403 145.5 381.5 c 128,-1,30
 166 360 166 360 199 360 c 0,31,32
 230 360 230 360 250 381.5 c 128,-1,33
 270 403 270 403 270 438 c 0,22,23
281 172 m 0,34,35
 281 219 281 219 258.5 247.5 c 128,-1,36
 236 276 236 276 199 276 c 128,-1,37
 162 276 162 276 139.5 247.5 c 128,-1,38
 117 219 117 219 117 172 c 0,39,40
 117 128 117 128 139.5 100 c 128,-1,41
 162 72 162 72 199 72 c 128,-1,42
 236 72 236 72 258.5 100 c 128,-1,43
 281 128 281 128 281 172 c 0,34,35
EndSplineSet
Substitution2: "'sinf' Scientific Inferiors in Latin lookup 0 subtable" uni2088
EndChar
StartChar: nine
Encoding: 57 57 27
Width: 395
Flags: W
LayerCount: 2
Fore
SplineSet
360 385 m 0,0,1
 360 277 360 277 307.5 176 c 128,-1,2
 255 75 255 75 160 0 c 1,3,-1
 113 66 l 1,4,5
 150 94 150 94 185.5 141 c 128,-1,6
 221 188 221 188 236 229 c 1,7,8
 222 227 222 227 199 227 c 0,9,10
 124 227 124 227 79.5 277 c 128,-1,11
 35 327 35 327 35 412 c 0,12,13
 35 495 35 495 79.5 544.5 c 128,-1,14
 124 594 124 594 199 594 c 0,15,16
 360 594 360 594 360 385 c 0,0,1
281 403 m 0,17,18
 281 452 281 452 258.5 482 c 128,-1,19
 236 512 236 512 199 512 c 0,20,21
 161 512 161 512 139 485 c 128,-1,22
 117 458 117 458 117 412 c 0,23,24
 117 365 117 365 139 337 c 128,-1,25
 161 309 161 309 199 309 c 0,26,27
 236 309 236 309 258.5 334.5 c 128,-1,28
 281 360 281 360 281 403 c 0,17,18
EndSplineSet
Substitution2: "'sinf' Scientific Inferiors in Latin lookup 0 subtable" uni2089
EndChar
StartChar: colon
Encoding: 58 58 28
Width: 163
Flags: W
LayerCount: 2
Fore
SplineSet
127 285 m 0,0,1
 127 266 127 266 114 253 c 128,-1,2
 101 240 101 240 82 240 c 0,3,4
 62 240 62 240 48.5 253 c 128,-1,5
 35 266 35 266 35 285 c 0,6,7
 35 305 35 305 48.5 318.5 c 128,-1,8
 62 332 62 332 82 332 c 0,9,10
 101 332 101 332 114 318.5 c 128,-1,11
 127 305 127 305 127 285 c 0,0,1
127 39 m 0,12,13
 127 19 127 19 114 5.5 c 128,-1,14
 101 -8 101 -8 82 -8 c 0,15,16
 62 -8 62 -8 48.5 5.5 c 128,-1,17
 35 19 35 19 35 39 c 0,18,19
 35 58 35 58 48.5 72 c 128,-1,20
 62 86 62 86 82 86 c 0,21,22
 101 86 101 86 114 72 c 128,-1,23
 127 58 127 58 127 39 c 0,12,13
EndSplineSet
EndChar
StartChar: equal
Encoding: 61 61 29
Width: 707
VWidth: 1754
Flags: W
LayerCount: 2
Fore
SplineSet
680 565 m 1,0,-1
 31 565 l 1,1,-1
 31 706 l 1,2,-1
 680 706 l 1,3,-1
 680 565 l 1,0,-1
680 308 m 1,4,-1
 31 308 l 1,5,-1
 31 449 l 1,6,-1
 680 449 l 1,7,-1
 680 308 l 1,4,-1
EndSplineSet
EndChar
StartChar: question
Encoding: 63 63 30
Width: 733
VWidth: 1754
Flags: W
LayerCount: 2
Fore
SplineSet
673 743 m 0,0,1
 673 674 673 674 645 624 c 128,-1,2
 617 574 617 574 577.5 542 c 128,-1,3
 538 510 538 510 498.5 476 c 128,-1,4
 459 442 459 442 434 384.5 c 128,-1,5
 409 327 409 327 415 248 c 1,6,-1
 295 248 l 1,7,8
 295 399 295 399 322 459 c 1,9,10
 343 497 343 497 398.5 544 c 128,-1,11
 454 591 454 591 493.5 637 c 128,-1,12
 533 683 533 683 533 737 c 0,13,14
 533 802 533 802 489 841 c 128,-1,15
 445 880 445 880 375 880 c 0,16,17
 269 880 269 880 228 810 c 0,18,19
 207 777 207 777 197 670 c 1,20,-1
 60 670 l 1,21,22
 60 759 60 759 74.5 811 c 128,-1,23
 89 863 89 863 127 908 c 0,24,25
 216 1018 216 1018 375 1017 c 0,26,27
 507 1017 507 1017 586 944 c 1,28,29
 673 856 673 856 673 743 c 0,0,1
284 56.5 m 128,-1,31
 284 86 284 86 306.5 108 c 128,-1,32
 329 130 329 130 358 130 c 128,-1,33
 387 130 387 130 407.5 108 c 128,-1,34
 428 86 428 86 428 56.5 c 128,-1,35
 428 27 428 27 407.5 6.5 c 128,-1,36
 387 -14 387 -14 358 -14 c 128,-1,37
 329 -14 329 -14 306.5 6.5 c 128,-1,30
 284 27 284 27 284 56.5 c 128,-1,31
EndSplineSet
EndChar
StartChar: at
Encoding: 64 64 31
Width: 1181
VWidth: 1754
Flags: W
LayerCount: 2
Fore
SplineSet
1091 572 m 0,0,1
 1091 430 1091 430 1015 322 c 128,-1,2
 939 214 939 214 834 214 c 0,3,4
 752 214 752 214 723 288 c 1,5,6
 658 207 658 207 546 207 c 0,7,8
 452 207 452 207 388.5 276.5 c 128,-1,9
 325 346 325 346 325 452 c 0,10,11
 325 580 325 580 405.5 672 c 128,-1,12
 486 764 486 764 600 764 c 0,13,14
 698 764 698 764 743 690 c 1,15,-1
 754 747 l 1,16,-1
 880 747 l 1,17,-1
 820 432 l 2,18,19
 810 381 810 381 810 368 c 0,20,21
 810 322 810 322 843 322 c 0,22,23
 893 322 893 322 935.5 397.5 c 128,-1,24
 978 473 978 473 978 569 c 0,25,26
 978 720 978 720 877 815.5 c 128,-1,27
 776 911 776 911 613 911 c 0,28,29
 447 911 447 911 329 788.5 c 128,-1,30
 211 666 211 666 211 498 c 0,31,32
 211 328 211 328 322 207 c 1,33,34
 435 94 435 94 620 94 c 0,35,36
 788 94 788 94 927 158 c 1,37,-1
 958 46 l 1,38,39
 807 -21 807 -21 625 -21 c 0,40,41
 389 -21 389 -21 245 123 c 1,42,43
 91 267 91 267 91 502 c 0,44,45
 91 716 91 716 242.5 866.5 c 128,-1,46
 394 1017 394 1017 610 1017 c 0,47,48
 819 1017 819 1017 955 892 c 128,-1,49
 1091 767 1091 767 1091 572 c 0,0,1
709 519 m 0,50,51
 709 574 709 574 682.5 604.5 c 128,-1,52
 656 635 656 635 610 635 c 0,53,54
 552 635 552 635 507 581.5 c 128,-1,55
 462 528 462 528 462 456 c 0,56,57
 462 401 462 401 492 367.5 c 128,-1,58
 522 334 522 334 569 334 c 0,59,60
 626 334 626 334 667.5 387 c 128,-1,61
 709 440 709 440 709 519 c 0,50,51
EndSplineSet
EndChar
StartChar: A
Encoding: 65 65 32
Width: 699
VWidth: 1754
Flags: W
LayerCount: 2
Fore
SplineSet
669 0 m 1,0,-1
 525 0 l 1,1,-1
 455 274 l 1,2,-1
 241 274 l 1,3,-1
 174 0 l 1,4,-1
 30 0 l 1,5,-1
 280 1000 l 1,6,-1
 420 1000 l 1,7,-1
 669 0 l 1,0,-1
420 415 m 1,8,-1
 347 702 l 1,9,-1
 276 415 l 1,10,-1
 420 415 l 1,8,-1
EndSplineSet
EndChar
StartChar: B
Encoding: 66 66 33
Width: 425
Flags: W
LayerCount: 2
Fore
SplineSet
391 160 m 0,0,1
 391 94 391 94 345.5 47 c 128,-1,2
 300 0 300 0 236 0 c 2,3,-1
 63 0 l 1,4,-1
 63 584 l 1,5,-1
 248 584 l 2,6,7
 307 584 307 584 344 541.5 c 128,-1,8
 381 499 381 499 381 432 c 0,9,10
 381 393 381 393 368 368 c 128,-1,11
 355 343 355 343 319 305 c 1,12,13
 391 246 391 246 391 160 c 0,0,1
299 432 m 0,14,15
 299 469 299 469 284.5 485.5 c 128,-1,16
 270 502 270 502 236 502 c 2,17,-1
 147 502 l 1,18,-1
 147 346 l 1,19,-1
 236 346 l 2,20,21
 265 346 265 346 282 369 c 128,-1,22
 299 392 299 392 299 432 c 0,14,15
309 166 m 0,23,24
 309 207 309 207 286 235.5 c 128,-1,25
 263 264 263 264 231 264 c 2,26,-1
 147 264 l 1,27,-1
 147 82 l 1,28,-1
 231 82 l 2,29,30
 266 82 266 82 287.5 105 c 128,-1,31
 309 128 309 128 309 166 c 0,23,24
EndSplineSet
EndChar
StartChar: C
Encoding: 67 67 34
Width: 739
VWidth: 1754
Flags: W
LayerCount: 2
Fore
SplineSet
649 733 m 1,0,-1
 505 733 l 1,1,2
 484 877 484 877 385 877 c 0,3,4
 298 877 298 877 263 799 c 128,-1,5
 228 721 228 721 228 526 c 0,6,7
 228 310 228 310 267.5 216.5 c 128,-1,8
 307 123 307 123 399 123 c 0,9,10
 505 123 505 123 505 267 c 1,11,-1
 649 267 l 1,12,13
 647 144 647 144 576 63.5 c 128,-1,14
 505 -17 505 -17 399 -17 c 0,15,16
 240 -17 240 -17 165.5 114 c 128,-1,17
 91 245 91 245 91 522 c 0,18,19
 91 765 91 765 166.5 891 c 128,-1,20
 242 1017 242 1017 389 1017 c 0,21,22
 516 1017 516 1017 586 916 c 1,23,24
 635 853 635 853 649 733 c 1,0,-1
EndSplineSet
EndChar
StartChar: D
Encoding: 68 68 35
Width: 757
VWidth: 1754
Flags: W
LayerCount: 2
Fore
SplineSet
670 502 m 0,0,1
 670 159 670 159 526 46 c 1,2,3
 475 0 475 0 385 0 c 2,4,-1
 108 0 l 1,5,-1
 108 1000 l 1,6,-1
 365 1000 l 2,7,8
 476 1000 476 1000 526 961 c 1,9,10
 620 894 620 894 646 740 c 1,11,12
 670 612 670 612 670 502 c 0,0,1
529 495 m 0,13,14
 529 689 529 689 502 757 c 1,15,16
 468 860 468 860 372 860 c 2,17,-1
 252 860 l 1,18,-1
 252 140 l 1,19,-1
 372 140 l 2,20,21
 432 140 432 140 468 180.5 c 128,-1,22
 504 221 504 221 516 284 c 1,23,24
 529 411 529 411 529 495 c 0,13,14
EndSplineSet
EndChar
StartChar: E
Encoding: 69 69 36
Width: 679
VWidth: 1754
Flags: W
LayerCount: 2
Fore
SplineSet
619 0 m 1,0,-1
 110 0 l 1,1,-1
 110 1000 l 1,2,-1
 581 1000 l 1,3,-1
 581 860 l 1,4,-1
 254 860 l 1,5,-1
 254 606 l 1,6,-1
 461 606 l 1,7,-1
 461 469 l 1,8,-1
 254 469 l 1,9,-1
 254 140 l 1,10,-1
 619 140 l 1,11,-1
 619 0 l 1,0,-1
EndSplineSet
EndChar
StartChar: F
Encoding: 70 70 37
Width: 647
VWidth: 1754
Flags: W
LayerCount: 2
Fore
SplineSet
617 860 m 1,0,-1
 252 860 l 1,1,-1
 252 606 l 1,2,-1
 452 606 l 1,3,-1
 452 469 l 1,4,-1
 252 469 l 1,5,-1
 252 0 l 1,6,-1
 108 0 l 1,7,-1
 108 1000 l 1,8,-1
 617 1000 l 1,9,-1
 617 860 l 1,0,-1
EndSplineSet
EndChar
StartChar: G
Encoding: 71 71 38
Width: 738
VWidth: 1754
Flags: W
LayerCount: 2
Fore
SplineSet
648 277 m 2,0,1
 648 183 648 183 619 123 c 1,2,3
 590 56 590 56 531.5 19.5 c 128,-1,4
 473 -17 473 -17 398 -17 c 0,5,6
 218 -17 218 -17 143 154 c 1,7,8
 90 281 90 281 90 498 c 0,9,10
 90 707 90 707 136 834 c 1,11,12
 162 913 162 913 232 965 c 128,-1,13
 302 1017 302 1017 388 1017 c 0,14,15
 496 1017 496 1017 569.5 945.5 c 128,-1,16
 643 874 643 874 648 764 c 1,17,-1
 504 764 l 1,18,19
 501 815 501 815 468.5 846 c 128,-1,20
 436 877 436 877 384 877 c 0,21,22
 309 877 309 877 273 803 c 1,23,24
 227 719 227 719 227 522 c 0,25,26
 227 388 227 388 247 274 c 1,27,28
 280 123 280 123 395 123 c 0,29,30
 505 123 505 123 504 277 c 2,31,-1
 504 344 l 1,32,-1
 391 344 l 1,33,-1
 391 485 l 1,34,-1
 648 485 l 1,35,-1
 648 277 l 2,0,1
EndSplineSet
EndChar
StartChar: H
Encoding: 72 72 39
Width: 782
VWidth: 1754
Flags: W
LayerCount: 2
Fore
SplineSet
672 0 m 1,0,-1
 528 0 l 1,1,-1
 528 452 l 1,2,-1
 254 452 l 1,3,-1
 254 0 l 1,4,-1
 110 0 l 1,5,-1
 110 1000 l 1,6,-1
 254 1000 l 1,7,-1
 254 593 l 1,8,-1
 528 593 l 1,9,-1
 528 1000 l 1,10,-1
 672 1000 l 1,11,-1
 672 0 l 1,0,-1
EndSplineSet
EndChar
StartChar: I
Encoding: 73 73 40
Width: 210
Flags: W
LayerCount: 2
Fore
SplineSet
145 0 m 1,0,-1
 63 0 l 1,1,-1
 63 584 l 1,2,-1
 145 584 l 1,3,-1
 145 0 l 1,0,-1
EndSplineSet
EndChar
StartChar: J
Encoding: 74 74 41
Width: 649
VWidth: 1754
Flags: W
LayerCount: 2
Fore
SplineSet
539 291 m 2,0,1
 539 210 539 210 524 165 c 128,-1,2
 509 120 509 120 472 77 c 0,3,4
 390 -17 390 -17 266 -17 c 0,5,6
 191 -17 191 -17 126.5 16.5 c 128,-1,7
 62 50 62 50 30 108 c 1,8,-1
 139 194 l 1,9,10
 190 124 190 124 266 123 c 0,11,12
 345 123 345 123 378 187 c 0,13,14
 395 221 395 221 395 248 c 2,15,-1
 395 1000 l 1,16,-1
 539 1000 l 1,17,-1
 539 291 l 2,0,1
EndSplineSet
EndChar
StartChar: K
Encoding: 75 75 42
Width: 425
Flags: W
LayerCount: 2
Fore
SplineSet
391 0 m 1,0,-1
 303 0 l 1,1,-1
 201 285 l 1,2,-1
 147 186 l 1,3,-1
 147 0 l 1,4,-1
 63 0 l 1,5,-1
 63 584 l 1,6,-1
 147 584 l 1,7,-1
 147 350 l 1,8,-1
 281 584 l 1,9,-1
 377 584 l 1,10,-1
 256 379 l 1,11,-1
 391 0 l 1,0,-1
EndSplineSet
EndChar
StartChar: L
Encoding: 76 76 43
Width: 378
Flags: W
LayerCount: 2
Fore
SplineSet
360 0 m 1,0,-1
 63 0 l 1,1,-1
 63 584 l 1,2,-1
 147 584 l 1,3,-1
 147 78 l 1,4,-1
 360 78 l 1,5,-1
 360 0 l 1,0,-1
EndSplineSet
EndChar
StartChar: M
Encoding: 77 77 44
Width: 881
VWidth: 1754
Flags: W
LayerCount: 2
Fore
SplineSet
771 0 m 1,0,-1
 627 0 l 1,1,-1
 627 562 l 1,2,-1
 440 0 l 1,3,-1
 254 562 l 1,4,-1
 254 0 l 1,5,-1
 110 0 l 1,6,-1
 110 1000 l 1,7,-1
 254 1000 l 1,8,-1
 440 438 l 1,9,-1
 627 1000 l 1,10,-1
 771 1000 l 1,11,-1
 771 0 l 1,0,-1
EndSplineSet
EndChar
StartChar: N
Encoding: 78 78 45
Width: 782
VWidth: 1754
Flags: W
LayerCount: 2
Fore
SplineSet
672 0 m 1,0,-1
 564 0 l 1,1,-1
 254 670 l 1,2,-1
 254 0 l 1,3,-1
 110 0 l 1,4,-1
 110 1000 l 1,5,-1
 254 1000 l 1,6,-1
 528 399 l 1,7,-1
 528 1000 l 1,8,-1
 672 1000 l 1,9,-1
 672 0 l 1,0,-1
EndSplineSet
EndChar
StartChar: O
Encoding: 79 79 46
Width: 766
VWidth: 1754
Flags: W
LayerCount: 2
Fore
SplineSet
676.018 502 m 0,0,1
 676.018 279 676.018 279 619.018 154 c 1,2,3
 549.018 -17 549.018 -17 384.018 -17 c 0,4,5
 295.018 -17 295.018 -17 239.518 23 c 128,-1,6
 184.018 63 184.018 63 146.018 154 c 1,7,8
 89.0176 282 89.0176 282 90.0176 502 c 0,9,10
 90.0176 725 90.0176 725 146.018 850 c 0,11,12
 185.018 939 185.018 939 241.018 978 c 128,-1,13
 297.018 1017 297.018 1017 384.518 1017 c 128,-1,14
 472.018 1017 472.018 1017 526.518 978 c 128,-1,15
 581.018 939 581.018 939 619.018 846 c 1,16,17
 676.018 718 676.018 718 676.018 502 c 0,0,1
539.018 502 m 0,18,19
 539.018 641 539.018 641 508.018 750 c 0,20,21
 474.018 877 474.018 877 384.518 877 c 128,-1,22
 295.018 877 295.018 877 259.018 754 c 1,23,24
 226.018 650 226.018 650 227.018 498 c 0,25,26
 227.018 371 227.018 371 259.018 245 c 1,27,28
 293.018 123 293.018 123 384.018 123 c 0,29,30
 473.018 123 473.018 123 508.018 245 c 1,31,32
 539.018 348 539.018 348 539.018 502 c 0,18,19
EndSplineSet
EndChar
StartChar: P
Encoding: 80 80 47
Width: 762
VWidth: 1754
Flags: W
LayerCount: 2
Fore
SplineSet
672 719 m 0,0,1
 672 584 672 584 604 511 c 128,-1,2
 536 438 536 438 410 438 c 2,3,-1
 254 438 l 1,4,-1
 254 0 l 1,5,-1
 110 0 l 1,6,-1
 110 1000 l 1,7,-1
 410 1000 l 2,8,9
 528 1000 528 1000 600 923 c 128,-1,10
 672 846 672 846 672 719 c 0,0,1
531 719 m 0,11,12
 531 782 531 782 495 821 c 128,-1,13
 459 860 459 860 401 860 c 2,14,-1
 254 860 l 1,15,-1
 254 576 l 1,16,-1
 401 576 l 2,17,18
 464 576 464 576 497.5 613 c 128,-1,19
 531 650 531 650 531 719 c 0,11,12
EndSplineSet
EndChar
StartChar: Q
Encoding: 81 81 48
Width: 766
VWidth: 1754
Flags: W
LayerCount: 2
Fore
SplineSet
676.504 502 m 0,0,1
 676.504 195 676.504 195 561.504 57 c 1,2,-1
 599.504 -3 l 1,3,-1
 508.504 -63 l 1,4,-1
 472.504 -3 l 1,5,6
 426.504 -17 426.504 -17 384.504 -17 c 0,7,8
 297.504 -17 297.504 -17 241.004 24 c 128,-1,9
 184.504 65 184.504 65 146.504 154 c 0,10,11
 89.5039 282 89.5039 282 90.0039 501.5 c 128,-1,12
 90.5039 721 90.5039 721 146.504 850 c 0,13,14
 184.504 937 184.504 937 241.004 977 c 128,-1,15
 297.504 1017 297.504 1017 385.004 1017 c 128,-1,16
 472.504 1017 472.504 1017 527.004 977 c 128,-1,17
 581.504 937 581.504 937 619.504 846 c 1,18,19
 676.504 718 676.504 718 676.504 502 c 0,0,1
539.504 502 m 0,20,21
 539.504 651 539.504 651 508.504 750 c 1,22,23
 474.504 877 474.504 877 385.004 877 c 128,-1,24
 295.504 877 295.504 877 259.504 754 c 1,25,26
 226.504 650 226.504 650 227.504 498 c 0,27,28
 227.504 445 227.504 445 234.504 382.5 c 128,-1,29
 241.504 320 241.504 320 256.504 246.5 c 128,-1,30
 271.504 173 271.504 173 306.004 136 c 128,-1,31
 340.504 99 340.504 99 388.504 123 c 1,32,-1
 330.504 218 l 1,33,-1
 420.504 277 l 1,34,-1
 480.504 182 l 1,35,36
 539.504 281 539.504 281 539.504 502 c 0,20,21
EndSplineSet
EndChar
StartChar: R
Encoding: 82 82 49
Width: 732
VWidth: 1754
Flags: W
LayerCount: 2
Fore
SplineSet
672 0 m 1,0,-1
 524 0 l 1,1,-1
 391 469 l 1,2,-1
 254 469 l 1,3,-1
 254 0 l 1,4,-1
 110 0 l 1,5,-1
 110 1000 l 1,6,-1
 410 1000 l 2,7,8
 528 1000 528 1000 600 926.5 c 128,-1,9
 672 853 672 853 672 733 c 0,10,11
 672 545 672 545 528 492 c 1,12,-1
 672 0 l 1,0,-1
531 733 m 0,13,14
 531 791 531 791 495 825.5 c 128,-1,15
 459 860 459 860 401 860 c 2,16,-1
 254 860 l 1,17,-1
 254 606 l 1,18,-1
 401 606 l 2,19,20
 464 606 464 606 497.5 639.5 c 128,-1,21
 531 673 531 673 531 733 c 0,13,14
EndSplineSet
EndChar
StartChar: S
Encoding: 83 83 50
Width: 395
Flags: W
LayerCount: 2
Fore
SplineSet
360 160 m 0,0,1
 360 89 360 89 313 39.5 c 128,-1,2
 266 -10 266 -10 199 -10 c 0,3,4
 125 -10 125 -10 80 43.5 c 128,-1,5
 35 97 35 97 35 172 c 1,6,-1
 117 172 l 1,7,8
 117 131 117 131 138 101.5 c 128,-1,9
 159 72 159 72 199 72 c 0,10,11
 233 72 233 72 257 98.5 c 128,-1,12
 281 125 281 125 281 160 c 0,13,14
 281 207 281 207 233 244 c 0,15,16
 230 247 230 247 230 248 c 0,17,18
 228 250 228 250 186 279 c 0,19,20
 156 299 156 299 135 313 c 0,21,22
 63 364 63 364 63 442 c 0,23,24
 63 505 63 505 106.5 549.5 c 128,-1,25
 150 594 150 594 213 594 c 0,26,27
 275 594 275 594 317 551 c 128,-1,28
 359 508 359 508 360 442 c 1,29,-1
 281 442 l 1,30,31
 280 472 280 472 260.5 491 c 128,-1,32
 241 510 241 510 213 510 c 0,33,34
 184 510 184 510 163.5 490.5 c 128,-1,35
 143 471 143 471 143 442 c 0,36,37
 143 420 143 420 154.5 406 c 128,-1,38
 166 392 166 392 199 373 c 0,39,40
 284 323 284 323 322 273 c 128,-1,41
 360 223 360 223 360 160 c 0,0,1
EndSplineSet
EndChar
StartChar: T
Encoding: 84 84 51
Width: 569
VWidth: 1754
Flags: W
LayerCount: 2
Fore
SplineSet
539 867 m 1,0,-1
 357 867 l 1,1,-1
 357 0 l 1,2,-1
 213 0 l 1,3,-1
 213 867 l 1,4,-1
 30 867 l 1,5,-1
 30 1000 l 1,6,-1
 539 1000 l 1,7,-1
 539 867 l 1,0,-1
EndSplineSet
EndChar
StartChar: U
Encoding: 85 85 52
Width: 782
VWidth: 1754
Flags: W
LayerCount: 2
Fore
SplineSet
672 298 m 2,0,1
 672 197 672 197 634 123 c 1,2,3
 596 61 596 61 530 22 c 128,-1,4
 464 -17 464 -17 394 -17 c 0,5,6
 320 -17 320 -17 253.5 21.5 c 128,-1,7
 187 60 187 60 149 123 c 1,8,9
 110 200 110 200 110 298 c 2,10,-1
 110 1000 l 1,11,-1
 254 1000 l 1,12,-1
 254 281 l 2,13,14
 254 211 254 211 292.5 167 c 128,-1,15
 331 123 331 123 394 123 c 0,16,17
 452 123 452 123 490 167 c 128,-1,18
 528 211 528 211 528 281 c 2,19,-1
 528 1000 l 1,20,-1
 672 1000 l 1,21,-1
 672 298 l 2,0,1
EndSplineSet
EndChar
StartChar: V
Encoding: 86 86 53
Width: 680
VWidth: 1754
Flags: W
LayerCount: 2
Fore
SplineSet
649 1000 m 1,0,-1
 392 0 l 1,1,-1
 284 0 l 1,2,-1
 31 1000 l 1,3,-1
 175 1000 l 1,4,-1
 341 351 l 1,5,-1
 505 1000 l 1,6,-1
 649 1000 l 1,0,-1
EndSplineSet
EndChar
StartChar: W
Encoding: 87 87 54
Width: 819
VWidth: 1754
Flags: W
LayerCount: 2
Fore
SplineSet
789 1000 m 1,0,-1
 628 0 l 1,1,-1
 504 0 l 1,2,-1
 410 522 l 1,3,-1
 314 0 l 1,4,-1
 189 0 l 1,5,-1
 30 1000 l 1,6,-1
 170 1000 l 1,7,-1
 256 466 l 1,8,-1
 354 1000 l 1,9,-1
 465 1000 l 1,10,-1
 561 466 l 1,11,-1
 648 1000 l 1,12,-1
 789 1000 l 1,0,-1
EndSplineSet
EndChar
StartChar: X
Encoding: 88 88 55
Width: 644
VWidth: 1754
Flags: W
LayerCount: 2
Fore
SplineSet
617 0 m 1,0,-1
 462 0 l 1,1,-1
 322 341 l 1,2,-1
 182 0 l 1,3,-1
 31 0 l 1,4,-1
 248 519 l 1,5,-1
 46 1000 l 1,6,-1
 197 1000 l 1,7,-1
 322 699 l 1,8,-1
 449 1000 l 1,9,-1
 600 1000 l 1,10,-1
 399 519 l 1,11,-1
 617 0 l 1,0,-1
EndSplineSet
EndChar
StartChar: Y
Encoding: 89 89 56
Width: 697
VWidth: 1754
Flags: W
LayerCount: 2
Fore
SplineSet
670 1000 m 1,0,-1
 421 452 l 1,1,-1
 421 0 l 1,2,-1
 277 0 l 1,3,-1
 277 452 l 1,4,-1
 31 1000 l 1,5,-1
 182 1000 l 1,6,-1
 351 639 l 1,7,-1
 516 1000 l 1,8,-1
 670 1000 l 1,0,-1
EndSplineSet
EndChar
StartChar: Z
Encoding: 90 90 57
Width: 391
Flags: W
LayerCount: 2
Fore
SplineSet
356 0 m 1,0,-1
 35 0 l 1,1,-1
 35 90 l 1,2,-1
 252 504 l 1,3,-1
 57 504 l 1,4,-1
 57 586 l 1,5,-1
 356 586 l 1,6,-1
 356 532 l 1,7,-1
 121 80 l 1,8,-1
 356 80 l 1,9,-1
 356 0 l 1,0,-1
EndSplineSet
EndChar
StartChar: grave
Encoding: 96 96 124
Width: 292
VWidth: 1754
Flags: W
LayerCount: 2
Fore
SplineSet
207 822 m 1,0,-1
 116 822 l 1,1,-1
 0 1000 l 1,2,-1
 149 1000 l 1,3,-1
 207 822 l 1,0,-1
EndSplineSet
EndChar
StartChar: a
Encoding: 97 97 58
Width: 348
Flags: W
LayerCount: 2
Fore
SplineSet
303 0 m 1,0,-1
 227 0 l 1,1,-1
 227 12 l 1,2,3
 206 -6 206 -6 156 -6 c 0,4,5
 101 -6 101 -6 62 36.5 c 128,-1,6
 23 79 23 79 23 143 c 0,7,8
 23 232 23 232 85.5 269 c 128,-1,9
 148 306 148 306 223 270 c 1,10,11
 222 292 222 292 221.5 299.5 c 128,-1,12
 221 307 221 307 217.5 322.5 c 128,-1,13
 214 338 214 338 207.5 343.5 c 128,-1,14
 201 349 201 349 188 354.5 c 128,-1,15
 175 360 175 360 156 360 c 0,16,17
 130 360 130 360 105 343.5 c 128,-1,18
 80 327 80 327 68 307 c 1,19,-1
 47 387 l 1,20,21
 99 436 99 436 166 436 c 0,22,23
 303 436 303 436 303 285 c 2,24,-1
 303 0 l 1,0,-1
223 104 m 2,25,-1
 223 188 l 1,26,27
 201 208 201 208 173.5 210.5 c 128,-1,28
 146 213 146 213 125 195 c 128,-1,29
 104 177 104 177 104 141 c 0,30,31
 104 66 104 66 174 66 c 0,32,33
 223 66 223 66 223 104 c 2,25,-1
EndSplineSet
EndChar
StartChar: b
Encoding: 98 98 59
Width: 659
VWidth: 1754
Flags: W
LayerCount: 2
Fore
SplineSet
599 368 m 0,0,1
 599 -14 599 -14 343 -14 c 0,2,3
 316 -14 316 -14 287.5 -2 c 128,-1,4
 259 10 259 10 246 22 c 2,5,-1
 230 34 l 1,6,-1
 230 0 l 1,7,-1
 90 0 l 1,8,-1
 90 940 l 1,9,-1
 230 1017 l 1,10,-1
 230 713 l 1,11,12
 280 747 280 747 360 747 c 0,13,14
 599 747 599 747 599 368 c 0,0,1
458 368 m 1,15,16
 449 613 449 613 343 613 c 0,17,18
 233 613 233 613 234 473 c 2,19,-1
 234 257 l 2,20,21
 234 192 234 192 264.5 154 c 128,-1,22
 295 116 295 116 350 116 c 128,-1,23
 405 116 405 116 431.5 193 c 128,-1,24
 458 270 458 270 458 368 c 1,15,16
EndSplineSet
EndChar
StartChar: c
Encoding: 99 99 60
Width: 342
Flags: W
LayerCount: 2
Fore
SplineSet
324 133 m 1,0,1
 298 -8 298 -8 182 -8 c 0,2,3
 35 -8 35 -8 35 215 c 0,4,5
 35 255 35 255 41 290 c 128,-1,6
 47 325 47 325 62 360 c 128,-1,7
 77 395 77 395 107.5 415.5 c 128,-1,8
 138 436 138 436 182 436 c 0,9,10
 289 436 289 436 317 330 c 1,11,-1
 240 297 l 1,12,13
 226 360 226 360 182 360 c 0,14,15
 161 360 161 360 146.5 344 c 128,-1,16
 132 328 132 328 126 303 c 128,-1,17
 120 278 120 278 117.5 257 c 128,-1,18
 115 236 115 236 115 215 c 128,-1,19
 115 194 115 194 117.5 173 c 128,-1,20
 120 152 120 152 126 127 c 128,-1,21
 132 102 132 102 146.5 86 c 128,-1,22
 161 70 161 70 182 70 c 0,23,24
 234 70 234 70 246 158 c 1,25,-1
 324 133 l 1,0,1
EndSplineSet
EndChar
StartChar: d
Encoding: 100 100 61
Width: 659
VWidth: 1754
Flags: W
LayerCount: 2
Fore
SplineSet
569 1017 m 1,0,-1
 569 0 l 1,1,-1
 428 0 l 1,2,-1
 428 34 l 1,3,4
 378 -14 378 -14 315 -14 c 0,5,6
 60 -14 60 -14 60 368 c 0,7,8
 60 747 60 747 298 747 c 0,9,10
 334 747 334 747 366.5 737.5 c 128,-1,11
 399 728 399 728 415 719 c 1,12,-1
 428 709 l 1,13,-1
 428 940 l 1,14,-1
 569 1017 l 1,0,-1
425 257 m 2,15,-1
 425 473 l 2,16,17
 425 613 425 613 312 613 c 0,18,19
 209 613 209 613 200 368 c 1,20,21
 200 269 200 269 226 192.5 c 128,-1,22
 252 116 252 116 308 116 c 0,23,24
 363 116 363 116 394 154 c 128,-1,25
 425 192 425 192 425 257 c 2,15,-1
EndSplineSet
EndChar
StartChar: e
Encoding: 101 101 62
Width: 354
Flags: W
LayerCount: 2
Fore
SplineSet
330 180 m 1,0,-1
 117 180 l 1,1,2
 126 70 126 70 182 70 c 0,3,4
 206 70 206 70 225 89 c 128,-1,5
 244 108 244 108 250 137 c 1,6,-1
 313 90 l 1,7,8
 277 -8 277 -8 182 -8 c 0,9,10
 35 -8 35 -8 35 215 c 0,11,12
 35 255 35 255 41 290 c 128,-1,13
 47 325 47 325 62 360 c 128,-1,14
 77 395 77 395 107.5 415.5 c 128,-1,15
 138 436 138 436 182 436 c 0,16,17
 232 436 232 436 264.5 412 c 128,-1,18
 297 388 297 388 310 345 c 128,-1,19
 323 302 323 302 327 265.5 c 128,-1,20
 331 229 331 229 330 180 c 1,0,-1
248 254 m 1,21,22
 248 360 248 360 182 360 c 0,23,24
 115 360 115 360 115 254 c 1,25,-1
 248 254 l 1,21,22
EndSplineSet
EndChar
StartChar: f
Encoding: 102 102 63
Width: 215
Flags: W
LayerCount: 2
Fore
SplineSet
203 348 m 1,0,-1
 152 348 l 1,1,-1
 152 0 l 1,2,-1
 70 0 l 1,3,-1
 70 348 l 1,4,-1
 23 348 l 1,5,-1
 23 426 l 1,6,-1
 70 426 l 1,7,-1
 70 500 l 2,8,9
 70 538 70 538 87.5 566 c 128,-1,10
 105 594 105 594 141 594 c 0,11,12
 178 594 178 594 201 588 c 1,13,-1
 201 512 l 1,14,15
 152 524 152 524 152 487 c 2,16,-1
 152 426 l 1,17,-1
 203 426 l 1,18,-1
 203 348 l 1,0,-1
EndSplineSet
EndChar
StartChar: g
Encoding: 103 103 64
Width: 385
Flags: W
LayerCount: 2
Fore
SplineSet
334 426 m 1,0,-1
 334 35 l 2,1,2
 334 34 334 34 334.5 15.5 c 128,-1,3
 335 -3 335 -3 334.5 -12.5 c 128,-1,4
 334 -22 334 -22 332.5 -43.5 c 128,-1,5
 331 -65 331 -65 326 -78.5 c 128,-1,6
 321 -92 321 -92 314 -112 c 128,-1,7
 307 -132 307 -132 294 -146 c 128,-1,8
 281 -160 281 -160 264 -174 c 128,-1,9
 247 -188 247 -188 222.5 -197.5 c 128,-1,10
 198 -207 198 -207 168 -211 c 1,11,-1
 129 -145 l 1,12,13
 250 -121 250 -121 250 -35 c 2,14,-1
 250 4 l 1,15,16
 221 -8 221 -8 184 -8 c 0,17,18
 35 -8 35 -8 35 215 c 0,19,20
 35 436 35 436 174 436 c 0,21,22
 195 436 195 436 214 429 c 128,-1,23
 233 422 233 422 242 415 c 2,24,-1
 250 408 l 1,25,-1
 250 426 l 1,26,-1
 334 426 l 1,0,-1
248 150 m 2,27,-1
 248 276 l 2,28,29
 248 358 248 358 182 358 c 0,30,31
 163 358 163 358 149.5 344.5 c 128,-1,32
 136 331 136 331 129.5 308.5 c 128,-1,33
 123 286 123 286 120 263.5 c 128,-1,34
 117 241 117 241 117 215 c 0,35,36
 117 157 117 157 132 112.5 c 128,-1,37
 147 68 147 68 180 68 c 0,38,39
 212 68 212 68 230 90 c 128,-1,40
 248 112 248 112 248 150 c 2,27,-1
EndSplineSet
EndChar
StartChar: h
Encoding: 104 104 65
Width: 675
VWidth: 1754
Flags: W
LayerCount: 2
Fore
SplineSet
595 0 m 1,0,-1
 455 0 l 1,1,-1
 455 502 l 2,2,3
 455 567 455 567 423 592 c 128,-1,4
 391 617 391 617 333 617 c 1,5,6
 230 610 230 610 230 502 c 2,7,-1
 230 0 l 1,8,-1
 90 0 l 1,9,-1
 90 940 l 1,10,-1
 227 1017 l 1,11,-1
 227 719 l 1,12,13
 290 750 290 750 355 750 c 128,-1,14
 420 750 420 750 473.5 724.5 c 128,-1,15
 527 699 527 699 561 640.5 c 128,-1,16
 595 582 595 582 595 502 c 2,17,-1
 595 0 l 1,0,-1
EndSplineSet
EndChar
StartChar: i
Encoding: 105 105 66
Width: 324
VWidth: 1754
Flags: W
LayerCount: 2
Fore
SplineSet
234 940 m 0,0,1
 234 911 234 911 213.5 890.5 c 128,-1,2
 193 870 193 870 160 870 c 0,3,4
 131 870 131 870 110.5 890.5 c 128,-1,5
 90 911 90 911 90 940 c 0,6,7
 90 973 90 973 110.5 993.5 c 128,-1,8
 131 1014 131 1014 160 1014 c 0,9,10
 193 1014 193 1014 213.5 993.5 c 128,-1,11
 234 973 234 973 234 940 c 0,0,1
230 0 m 1,12,-1
 90 0 l 1,13,-1
 90 730 l 1,14,-1
 230 730 l 1,15,-1
 230 0 l 1,12,-1
EndSplineSet
EndChar
StartChar: j
Encoding: 106 106 67
Width: 219
Flags: W
LayerCount: 2
Fore
SplineSet
168 549 m 0,0,1
 168 532 168 532 156 520 c 128,-1,2
 144 508 144 508 125 508 c 0,3,4
 108 508 108 508 96 520 c 128,-1,5
 84 532 84 532 84 549 c 0,6,7
 84 568 84 568 96 580 c 128,-1,8
 108 592 108 592 125 592 c 0,9,10
 144 592 144 592 156 580 c 128,-1,11
 168 568 168 568 168 549 c 0,0,1
166 -14 m 2,12,13
 166 -121 166 -121 104 -164 c 0,14,15
 44 -206 44 -206 0 -211 c 1,16,-1
 0 -129 l 1,17,18
 33 -118 33 -118 53 -104 c 1,19,20
 84 -79 84 -79 84 -37 c 2,21,-1
 84 426 l 1,22,-1
 166 426 l 1,23,-1
 166 -14 l 2,12,13
EndSplineSet
EndChar
StartChar: k
Encoding: 107 107 68
Width: 654
VWidth: 1754
Flags: W
LayerCount: 2
Fore
SplineSet
634 0 m 1,0,-1
 484 0 l 1,1,-1
 307 411 l 1,2,-1
 230 315 l 1,3,-1
 230 0 l 1,4,-1
 90 0 l 1,5,-1
 90 940 l 1,6,-1
 230 1017 l 1,7,-1
 230 519 l 1,8,-1
 398 730 l 1,9,-1
 568 730 l 1,10,-1
 407 529 l 1,11,-1
 634 0 l 1,0,-1
EndSplineSet
EndChar
StartChar: l
Encoding: 108 108 69
Width: 318
VWidth: 1754
Flags: W
LayerCount: 2
Fore
SplineSet
228 0 m 1,0,-1
 91 0 l 1,1,-1
 91 940 l 1,2,-1
 228 1017 l 1,3,-1
 228 0 l 1,0,-1
EndSplineSet
EndChar
StartChar: m
Encoding: 109 109 70
Width: 587
Flags: W
LayerCount: 2
Fore
SplineSet
543 0 m 1,0,-1
 459 0 l 1,1,-1
 459 293 l 2,2,3
 459 332 459 332 443.5 346 c 128,-1,4
 428 360 428 360 393 360 c 0,5,6
 338 360 338 360 338 293 c 2,7,-1
 338 0 l 1,8,-1
 256 0 l 1,9,-1
 256 293 l 2,10,11
 256 332 256 332 240 346 c 128,-1,12
 224 360 224 360 190 360 c 1,13,14
 135 356 135 356 135 293 c 2,15,-1
 135 0 l 1,16,-1
 53 0 l 1,17,-1
 53 426 l 1,18,-1
 133 426 l 1,19,-1
 133 401 l 1,20,21
 172 436 172 436 219 436 c 0,22,23
 273 436 273 436 309 385 c 1,24,25
 344 440 344 440 424 436 c 0,26,27
 474 433 474 433 508.5 397 c 128,-1,28
 543 361 543 361 543 293 c 2,29,-1
 543 0 l 1,0,-1
EndSplineSet
EndChar
StartChar: n
Encoding: 110 110 71
Width: 675
VWidth: 1754
Flags: W
LayerCount: 2
Fore
SplineSet
595 0 m 1,0,-1
 455 0 l 1,1,-1
 455 498 l 2,2,3
 455 563 455 563 423 588 c 128,-1,4
 391 613 391 613 333 613 c 1,5,6
 230 606 230 606 230 498 c 2,7,-1
 230 0 l 1,8,-1
 90 0 l 1,9,-1
 90 730 l 1,10,-1
 227 730 l 1,11,-1
 227 699 l 1,12,13
 251 730 251 730 311 741 c 128,-1,14
 371 752 371 752 434 738.5 c 128,-1,15
 497 725 497 725 546 663 c 128,-1,16
 595 601 595 601 595 502 c 2,17,-1
 595 0 l 1,0,-1
EndSplineSet
EndChar
StartChar: o
Encoding: 111 111 72
Width: 625
VWidth: 1754
Flags: W
LayerCount: 2
Fore
SplineSet
565 368 m 0,0,1
 565 -14 565 -14 312 -14 c 0,2,3
 60 -14 60 -14 60 368 c 0,4,5
 60 437 60 437 70.5 497 c 128,-1,6
 81 557 81 557 106.5 617 c 128,-1,7
 132 677 132 677 184 712 c 128,-1,8
 236 747 236 747 312 747 c 0,9,10
 565 747 565 747 565 368 c 0,0,1
428 368 m 0,11,12
 428 401 428 401 424 437 c 128,-1,13
 420 473 420 473 408.5 515.5 c 128,-1,14
 397 558 397 558 372.5 585.5 c 128,-1,15
 348 613 348 613 312 613 c 128,-1,16
 276 613 276 613 251 585.5 c 128,-1,17
 226 558 226 558 216 515.5 c 128,-1,18
 206 473 206 473 201.5 437 c 128,-1,19
 197 401 197 401 197 365 c 128,-1,20
 197 329 197 329 201.5 293 c 128,-1,21
 206 257 206 257 216 214 c 128,-1,22
 226 171 226 171 251 143.5 c 128,-1,23
 276 116 276 116 312 116 c 128,-1,24
 348 116 348 116 372.5 143.5 c 128,-1,25
 397 171 397 171 408.5 215.5 c 128,-1,26
 420 260 420 260 424 297 c 128,-1,27
 428 334 428 334 428 368 c 0,11,12
EndSplineSet
EndChar
StartChar: p
Encoding: 112 112 73
Width: 659
VWidth: 1754
Flags: W
LayerCount: 2
Fore
SplineSet
599 361 m 0,0,1
 599 -18 599 -18 360 -17 c 0,2,3
 324 -17 324 -17 291.5 -10 c 128,-1,4
 259 -3 259 -3 246 3 c 2,5,-1
 230 10 l 1,6,-1
 230 -214 l 1,7,-1
 90 -281 l 1,8,-1
 90 730 l 1,9,-1
 230 730 l 1,10,-1
 230 695 l 1,11,12
 283 743 283 743 354 747 c 1,13,14
 431 749 431 749 483 716 c 128,-1,15
 535 683 535 683 558 621.5 c 128,-1,16
 581 560 581 560 590 500 c 128,-1,17
 599 440 599 440 599 361 c 0,0,1
458 361 m 0,18,19
 458 603 458 603 347 610 c 1,20,21
 297 615 297 615 265.5 579 c 128,-1,22
 234 543 234 543 234 445 c 2,23,-1
 234 281 l 2,24,25
 234 200 234 200 265.5 158 c 128,-1,26
 297 116 297 116 343 116 c 0,27,28
 388 116 388 116 414.5 158 c 128,-1,29
 441 200 441 200 449.5 249.5 c 128,-1,30
 458 299 458 299 458 361 c 0,18,19
EndSplineSet
EndChar
StartChar: q
Encoding: 113 113 74
Width: 385
Flags: W
LayerCount: 2
Fore
SplineSet
332 426 m 1,0,-1
 332 -125 l 1,1,-1
 250 -164 l 1,2,-1
 250 6 l 1,3,4
 221 -10 221 -10 174 -10 c 0,5,6
 35 -10 35 -10 35 211 c 0,7,8
 35 257 35 257 40 292 c 128,-1,9
 45 327 45 327 58.5 363 c 128,-1,10
 72 399 72 399 102.5 418 c 128,-1,11
 133 437 133 437 178 436 c 1,12,13
 215 434 215 434 250 406 c 1,14,-1
 250 426 l 1,15,-1
 332 426 l 1,0,-1
248 164 m 2,16,-1
 248 260 l 2,17,18
 248 317 248 317 229.5 338 c 128,-1,19
 211 359 211 359 182 356 c 1,20,21
 117 352 117 352 117 211 c 0,22,23
 117 185 117 185 120 162.5 c 128,-1,24
 123 140 123 140 129.5 117.5 c 128,-1,25
 136 95 136 95 149.5 81.5 c 128,-1,26
 163 68 163 68 182 68 c 0,27,28
 210 68 210 68 229 92.5 c 128,-1,29
 248 117 248 117 248 164 c 2,16,-1
EndSplineSet
EndChar
StartChar: r
Encoding: 114 114 75
Width: 438
VWidth: 1754
Flags: W
LayerCount: 2
Fore
SplineSet
421 699 m 1,0,-1
 399 569 l 1,1,2
 353 610 353 610 319 610 c 0,3,4
 262 610 262 610 245 576.5 c 128,-1,5
 228 543 228 543 228 466 c 2,6,-1
 228 0 l 1,7,-1
 91 0 l 1,8,-1
 91 730 l 1,9,-1
 228 730 l 1,10,-1
 228 695 l 1,11,12
 250 717 250 717 258.5 725 c 128,-1,13
 267 733 267 733 284 740 c 128,-1,14
 301 747 301 747 325 747 c 0,15,16
 380 747 380 747 421 699 c 1,0,-1
EndSplineSet
EndChar
StartChar: s
Encoding: 115 115 76
Width: 288
Flags: W
LayerCount: 2
Fore
SplineSet
271 111 m 0,0,1
 268 61 268 61 233 26.5 c 128,-1,2
 198 -8 198 -8 138 -8 c 0,3,4
 65 -8 65 -8 24 59 c 1,5,-1
 87 109 l 1,6,7
 119 61 119 61 157 72 c 0,8,9
 183 79 183 79 185 103 c 128,-1,10
 187 127 187 127 165 152 c 1,11,12
 147 175 147 175 110 204.5 c 128,-1,13
 73 234 73 234 51 259 c 128,-1,14
 29 284 29 284 26 313 c 1,15,16
 23 357 23 357 44 389.5 c 128,-1,17
 65 422 65 422 105 432 c 0,18,19
 189 454 189 454 251 373 c 1,20,-1
 191 326 l 1,21,22
 189 328 189 328 186 331.5 c 128,-1,23
 183 335 183 335 174.5 342 c 128,-1,24
 166 349 166 349 157.5 352.5 c 128,-1,25
 149 356 149 356 138.5 355.5 c 128,-1,26
 128 355 128 355 120 346 c 1,27,28
 106 326 106 326 116 312 c 128,-1,29
 126 298 126 298 152.5 275.5 c 128,-1,30
 179 253 179 253 206 232.5 c 128,-1,31
 233 212 233 212 253 179 c 128,-1,32
 273 146 273 146 271 111 c 0,0,1
EndSplineSet
EndChar
StartChar: t
Encoding: 116 116 77
Width: 223
Flags: W
LayerCount: 2
Fore
SplineSet
217 90 m 1,0,-1
 205 10 l 1,1,2
 170 -8 170 -8 141 -8 c 1,3,4
 98 -11 98 -11 79.5 20 c 128,-1,5
 61 51 61 51 61 102 c 2,6,-1
 61 348 l 1,7,-1
 6 348 l 1,8,-1
 6 426 l 1,9,-1
 61 426 l 1,10,-1
 61 549 l 1,11,-1
 143 594 l 1,12,-1
 143 426 l 1,13,-1
 211 426 l 1,14,-1
 211 348 l 1,15,-1
 143 348 l 1,16,-1
 143 111 l 2,17,18
 143 88 143 88 148.5 79 c 128,-1,19
 154 70 154 70 172 70 c 0,20,21
 191 70 191 70 217 90 c 1,0,-1
EndSplineSet
EndChar
StartChar: u
Encoding: 117 117 78
Width: 395
Flags: W
LayerCount: 2
Fore
SplineSet
342 0 m 1,0,-1
 262 0 l 1,1,-1
 262 25 l 1,2,3
 223 -10 223 -10 176 -10 c 0,4,5
 126 -10 126 -10 86.5 27.5 c 128,-1,6
 47 65 47 65 47 133 c 2,7,-1
 47 426 l 1,8,-1
 129 426 l 1,9,-1
 129 133 l 2,10,11
 129 96 129 96 148 82 c 128,-1,12
 167 68 167 68 201 68 c 0,13,14
 260 68 260 68 260 133 c 2,15,-1
 260 426 l 1,16,-1
 342 426 l 1,17,-1
 342 0 l 1,0,-1
EndSplineSet
EndChar
StartChar: v
Encoding: 118 118 79
Width: 626
VWidth: 1754
Flags: W
LayerCount: 2
Fore
SplineSet
606 730 m 1,0,-1
 372 0 l 1,1,-1
 257 0 l 1,2,-1
 21 730 l 1,3,-1
 161 730 l 1,4,-1
 312 238 l 1,5,-1
 459 730 l 1,6,-1
 606 730 l 1,0,-1
EndSplineSet
EndChar
StartChar: w
Encoding: 119 119 80
Width: 571
Flags: W
LayerCount: 2
Fore
SplineSet
561 426 m 1,0,-1
 463 0 l 1,1,-1
 375 0 l 1,2,-1
 287 283 l 1,3,-1
 197 0 l 1,4,-1
 111 0 l 1,5,-1
 12 426 l 1,6,-1
 94 426 l 1,7,-1
 158 154 l 1,8,-1
 242 426 l 1,9,-1
 330 426 l 1,10,-1
 412 152 l 1,11,-1
 477 426 l 1,12,-1
 561 426 l 1,0,-1
EndSplineSet
EndChar
StartChar: x
Encoding: 120 120 81
Width: 647
VWidth: 1754
Flags: W
LayerCount: 2
Fore
SplineSet
649 0 m 1,0,-1
 485 0 l 1,1,-1
 322 271 l 1,2,-1
 161 0 l 1,3,-1
 0 0 l 1,4,-1
 245 404 l 1,5,-1
 46 730 l 1,6,-1
 211 730 l 1,7,-1
 322 540 l 1,8,-1
 438 730 l 1,9,-1
 596 730 l 1,10,-1
 404 408 l 1,11,-1
 649 0 l 1,0,-1
EndSplineSet
EndChar
StartChar: y
Encoding: 121 121 82
Width: 385
Flags: W
LayerCount: 2
Fore
SplineSet
375 426 m 1,0,-1
 182 -164 l 1,1,-1
 94 -164 l 1,2,-1
 147 0 l 1,3,-1
 12 426 l 1,4,-1
 96 426 l 1,5,-1
 193 127 l 1,6,-1
 287 426 l 1,7,-1
 375 426 l 1,0,-1
EndSplineSet
EndChar
StartChar: z
Encoding: 122 122 83
Width: 479
VWidth: 1754
Flags: W
LayerCount: 2
Fore
SplineSet
449 586 m 1,0,-1
 197 134 l 1,1,-1
 449 134 l 1,2,-1
 449 0 l 1,3,-1
 31 0 l 1,4,-1
 31 113 l 1,5,-1
 295 582 l 1,6,-1
 57 582 l 1,7,-1
 57 730 l 1,8,-1
 449 730 l 1,9,-1
 449 586 l 1,0,-1
EndSplineSet
EndChar
StartChar: cent
Encoding: 162 162 84
Width: 335
Flags: W
LayerCount: 2
Fore
SplineSet
319 195 m 1,0,1
 318 146 318 146 290.5 110.5 c 128,-1,2
 263 75 263 75 225 66 c 1,3,-1
 225 -2 l 1,4,-1
 145 -2 l 1,5,-1
 145 70 l 1,6,7
 35 89 35 89 35 301 c 0,8,9
 35 396 35 396 64 452 c 128,-1,10
 93 508 93 508 145 514 c 1,11,-1
 145 584 l 1,12,-1
 225 584 l 1,13,-1
 225 514 l 1,14,15
 264 507 264 507 289 468.5 c 128,-1,16
 314 430 314 430 319 387 c 1,17,-1
 246 387 l 1,18,19
 238 440 238 440 186 440 c 0,20,21
 141 440 141 440 127 411.5 c 128,-1,22
 113 383 113 383 113 301 c 0,23,24
 113 212 113 212 130.5 176.5 c 128,-1,25
 148 141 148 141 193 141 c 0,26,27
 246 141 246 141 246 195 c 1,28,-1
 319 195 l 1,0,1
EndSplineSet
EndChar
StartChar: dieresis
Encoding: 168 168 125
Width: 312
Flags: W
LayerCount: 2
Fore
SplineSet
137 549 m 0,0,1
 137 532 137 532 125 520 c 128,-1,2
 113 508 113 508 94 508 c 0,3,4
 77 508 77 508 65 520 c 128,-1,5
 53 532 53 532 53 549 c 0,6,7
 53 568 53 568 65 580 c 128,-1,8
 77 592 77 592 94 592 c 0,9,10
 113 592 113 592 125 580 c 128,-1,11
 137 568 137 568 137 549 c 0,0,1
259 549 m 0,12,13
 259 532 259 532 247 520 c 128,-1,14
 235 508 235 508 216 508 c 0,15,16
 199 508 199 508 187 520 c 128,-1,17
 175 532 175 532 175 549 c 0,18,19
 175 568 175 568 187 580 c 128,-1,20
 199 592 199 592 216 592 c 0,21,22
 235 592 235 592 247 580 c 128,-1,23
 259 568 259 568 259 549 c 0,12,13
EndSplineSet
EndChar
StartChar: uni00B2
Encoding: 178 178 87
AltUni2: 002072.ffffffff.0
Width: 450
VWidth: 1754
Flags: W
LayerCount: 2
Fore
SplineSet
411 334 m 1,0,-1
 39 334 l 1,1,2
 44 442 44 442 72 517 c 1,3,4
 113 620 113 620 180 682 c 0,5,6
 207 706 207 706 264 745 c 0,7,8
 298 769 298 769 309 785.5 c 128,-1,9
 320 802 320 802 320 826 c 0,10,11
 320 864 320 864 292.5 891 c 128,-1,12
 265 918 265 918 226.5 918 c 128,-1,13
 188 918 188 918 161 890.5 c 128,-1,14
 134 863 134 863 134 826 c 1,15,-1
 39 826 l 1,16,17
 41 905 41 905 94 958.5 c 128,-1,18
 147 1012 147 1012 226 1012 c 0,19,20
 303 1012 303 1012 357 957.5 c 128,-1,21
 411 903 411 903 411 826 c 0,22,23
 411 747 411 747 355 694 c 1,24,25
 341 685 341 685 334 678 c 2,26,-1
 310 661 l 1,27,-1
 288 644 l 1,28,-1
 260 627 l 1,29,30
 229 603 229 603 199.5 562 c 128,-1,31
 170 521 170 521 156 480 c 0,32,33
 149 465 149 465 142 428 c 1,34,-1
 411 428 l 1,35,-1
 411 334 l 1,0,-1
EndSplineSet
EndChar
StartChar: uni00B3
Encoding: 179 179 88
AltUni2: 002073.ffffffff.0
Width: 450
VWidth: 1754
Flags: W
LayerCount: 2
Fore
SplineSet
411 514 m 0,0,1
 411 432 411 432 359 377 c 128,-1,2
 307 322 307 322 227 322 c 128,-1,3
 147 322 147 322 95 375 c 128,-1,4
 43 428 43 428 39 510 c 1,5,-1
 134 510 l 1,6,7
 137 469 137 469 162.5 442.5 c 128,-1,8
 188 416 188 416 226 416 c 0,9,10
 267 416 267 416 293.5 444.5 c 128,-1,11
 320 473 320 473 320 514 c 0,12,13
 320 567 320 567 294.5 604.5 c 128,-1,14
 269 642 269 642 233 642 c 2,15,-1
 187 642 l 1,16,-1
 187 733 l 1,17,-1
 226 733 l 2,18,19
 253 733 253 733 276 761 c 0,20,21
 303 792 303 792 303 834 c 0,22,23
 303 873 303 873 282.5 895.5 c 128,-1,24
 262 918 262 918 226 918 c 0,25,26
 161 918 161 918 154 850 c 1,27,-1
 60 860 l 1,28,29
 67 929 67 929 114 970.5 c 128,-1,30
 161 1012 161 1012 226 1012 c 0,31,32
 298 1012 298 1012 346 962.5 c 128,-1,33
 394 913 394 913 394 841 c 0,34,35
 394 759 394 759 334 689 c 1,36,37
 411 620 411 620 411 514 c 0,0,1
EndSplineSet
EndChar
StartChar: acute
Encoding: 180 180 126
Width: 171
Flags: W
LayerCount: 2
Fore
SplineSet
84 584 m 1,0,-1
 171 584 l 1,1,-1
 103 480 l 1,2,-1
 50 480 l 1,3,-1
 84 584 l 1,0,-1
EndSplineSet
EndChar
StartChar: cedilla
Encoding: 184 184 181
Width: 0
VWidth: 1754
Flags: W
LayerCount: 2
Fore
SplineSet
202 10 m 1,0,-1
 269 10 l 1,1,-1
 255 -39 l 1,2,3
 310 -8 310 -8 341 -67 c 0,4,5
 374 -130 374 -130 320 -180 c 1,6,7
 296 -207 296 -207 260 -207 c 0,8,9
 179 -205 179 -205 103 -173 c 1,10,-1
 127 -116 l 1,11,12
 177 -147 177 -147 233 -146 c 0,13,14
 272 -144 272 -144 283 -127 c 0,15,16
 292 -113 292 -113 277 -96 c 0,17,18
 260 -74 260 -74 219 -104 c 1,19,-1
 178 -74 l 1,20,-1
 202 10 l 1,0,-1
EndSplineSet
EndChar
StartChar: uni00B9
Encoding: 185 185 86
AltUni2: 002071.ffffffff.0
Width: 151
Flags: W
LayerCount: 2
Fore
SplineSet
116 195 m 1,0,-1
 60 195 l 1,1,-1
 60 514 l 1,2,-1
 35 514 l 1,3,-1
 35 557 l 1,4,5
 67 559 67 559 79 584 c 1,6,-1
 116 584 l 1,7,-1
 116 195 l 1,0,-1
EndSplineSet
EndChar
StartChar: Ccedilla
Encoding: 199 199 132
Width: 739
VWidth: 1754
Flags: W
LayerCount: 2
Fore
SplineSet
336 -12 m 1,0,1
 225 10 225 10 166 115 c 1,2,3
 91 245 91 245 91 522 c 0,4,5
 91 765 91 765 166.5 891 c 128,-1,6
 242 1017 242 1017 389 1017 c 0,7,8
 516 1017 516 1017 586 916 c 1,9,10
 636 853 636 853 649 733 c 1,11,-1
 505 733 l 1,12,13
 484 877 484 877 385 877 c 0,14,15
 298 877 298 877 263 799 c 128,-1,16
 228 721 228 721 228 526 c 0,17,18
 228 310 228 310 267.5 216.5 c 128,-1,19
 307 123 307 123 399 123 c 0,20,21
 505 123 505 123 505 267 c 1,22,-1
 649 267 l 1,23,24
 647 144 647 144 577 63 c 0,25,26
 507 -16 507 -16 403 -17 c 1,27,-1
 397 -39 l 1,28,29
 452 -8 452 -8 483 -67 c 0,30,31
 516 -130 516 -130 462 -180 c 1,32,33
 438 -207 438 -207 403 -207 c 0,34,35
 322 -205 322 -205 245 -173 c 1,36,-1
 269 -116 l 1,37,38
 319 -147 319 -147 375 -146 c 0,39,40
 414 -144 414 -144 425 -127 c 0,41,42
 434 -113 434 -113 420 -96 c 0,43,44
 403 -74 403 -74 361 -104 c 1,45,-1
 319 -74 l 1,46,-1
 336 -12 l 1,0,1
EndSplineSet
EndChar
StartChar: ccedilla
Encoding: 231 231 157
Width: 342
Flags: W
LayerCount: 2
Fore
SplineSet
160 -7 m 1,0,1
 35 9 35 9 35 215 c 0,2,3
 35 255 35 255 41 290 c 128,-1,4
 47 325 47 325 62 360 c 128,-1,5
 77 395 77 395 107.5 415.5 c 128,-1,6
 138 436 138 436 182 436 c 0,7,8
 289 436 289 436 317 330 c 1,9,-1
 240 297 l 1,10,11
 226 360 226 360 182 360 c 0,12,13
 161 360 161 360 146.5 344 c 128,-1,14
 132 328 132 328 126 303 c 128,-1,15
 120 278 120 278 117.5 257 c 128,-1,16
 115 236 115 236 115 215 c 128,-1,17
 115 194 115 194 117.5 173 c 128,-1,18
 120 152 120 152 126 127 c 128,-1,19
 132 102 132 102 146.5 86 c 128,-1,20
 161 70 161 70 182 70 c 0,21,22
 234 70 234 70 246 158 c 1,23,-1
 324 133 l 1,24,25
 300 3 300 3 199 -7 c 1,26,-1
 195 -23 l 1,27,28
 227 -5 227 -5 245 -39 c 0,29,30
 265 -76 265 -76 234 -105 c 1,31,32
 220 -121 220 -121 199 -121 c 0,33,34
 152 -120 152 -120 106 -101 c 1,35,-1
 120 -68 l 1,36,37
 149 -86 149 -86 182 -85 c 0,38,39
 205 -84 205 -84 211 -74 c 1,40,41
 217 -66 217 -66 209 -56 c 0,42,43
 199 -43 199 -43 175 -61 c 1,44,-1
 150 -43 l 1,45,-1
 160 -7 l 1,0,1
EndSplineSet
EndChar
StartChar: dotlessi
Encoding: 305 305 178
Width: 322
VWidth: 1754
Flags: W
LayerCount: 2
Fore
SplineSet
231 0 m 1,0,-1
 91 0 l 1,1,-1
 91 730 l 1,2,-1
 231 730 l 1,3,-1
 231 0 l 1,0,-1
EndSplineSet
EndChar
StartChar: circumflex
Encoding: 710 710 179
Width: 255
Flags: W
LayerCount: 2
Fore
SplineSet
171 584 m 1,0,-1
 225 480 l 1,1,-1
 172 480 l 1,2,-1
 128 517 l 1,3,-1
 83 480 l 1,4,-1
 30 480 l 1,5,-1
 84 584 l 1,6,-1
 171 584 l 1,0,-1
EndSplineSet
EndChar
StartChar: tilde
Encoding: 732 732 180
Width: 0
VWidth: 1754
Flags: W
LayerCount: 2
Fore
SplineSet
106 846 m 1,0,1
 106 935 106 935 151 987 c 1,2,3
 190 1030 190 1030 245 1029 c 0,4,5
 283 1029 283 1029 324 981 c 1,6,7
 345 950 345 950 380 951 c 0,8,9
 413 951 413 951 418 1028 c 1,10,-1
 495 1028 l 1,11,12
 495 949 495 949 459 899 c 0,13,14
 420 842 420 842 351 843 c 0,15,16
 308 843 308 843 272 892 c 1,17,18
 253 923 253 923 223 923 c 0,19,20
 187 923 187 923 183 846 c 1,21,-1
 106 846 l 1,0,1
EndSplineSet
EndChar
StartChar: fraction
Encoding: 8260 8260 105
Width: 678
VWidth: 1754
Flags: W
LayerCount: 2
Fore
SplineSet
678 999 m 1,0,-1
 103 0 l 1,1,-1
 0 0 l 1,2,-1
 576 999 l 1,3,-1
 678 999 l 1,0,-1
EndSplineSet
EndChar
StartChar: uni2070
Encoding: 8304 8304 85
Width: 510
VWidth: 1754
Flags: W
LayerCount: 2
Fore
SplineSet
450 668 m 0,0,1
 450 521 450 521 413 437 c 1,2,3
 367 322 367 322 257 322 c 0,4,5
 197 322 197 322 160 349.5 c 128,-1,6
 123 377 123 377 98 437 c 0,7,8
 60 523 60 523 60 668 c 0,9,10
 60 817 60 817 98 901 c 0,11,12
 124 959 124 959 161.5 985.5 c 128,-1,13
 199 1012 199 1012 257 1012 c 128,-1,14
 315 1012 315 1012 351 985.5 c 128,-1,15
 387 959 387 959 413 898 c 0,16,17
 450 812 450 812 450 668 c 0,0,1
360 668 m 0,18,19
 360 760 360 760 339 834 c 0,20,21
 315 918 315 918 256 918 c 128,-1,22
 197 918 197 918 173 836 c 1,23,24
 151 767 151 767 151 666 c 0,25,26
 151 582 151 582 173 497 c 0,27,28
 195 416 195 416 257 416 c 0,29,30
 315 416 315 416 339 497 c 0,31,32
 360 565 360 565 360 668 c 0,18,19
EndSplineSet
EndChar
StartChar: uni2074
Encoding: 8308 8308 89
Width: 493
VWidth: 1754
Flags: W
LayerCount: 2
Fore
SplineSet
433 495 m 1,0,-1
 392 495 l 1,1,-1
 392 334 l 1,2,-1
 296 334 l 1,3,-1
 296 495 l 1,4,-1
 21 495 l 1,5,-1
 21 564 l 1,6,-1
 296 1000 l 1,7,-1
 392 1000 l 1,8,-1
 392 584 l 1,9,-1
 433 584 l 1,10,-1
 433 495 l 1,0,-1
296 584 m 1,11,-1
 296 834 l 1,12,-1
 139 584 l 1,13,-1
 296 584 l 1,11,-1
EndSplineSet
EndChar
StartChar: uni2075
Encoding: 8309 8309 90
Width: 263
Flags: W
LayerCount: 2
Fore
SplineSet
240 332 m 0,0,1
 240 270 240 270 205 229 c 128,-1,2
 170 188 170 188 118 188 c 0,3,4
 67 188 67 188 23 222 c 1,5,-1
 60 262 l 1,6,7
 87 243 87 243 113 243 c 0,8,9
 144 243 144 243 165 268.5 c 128,-1,10
 186 294 186 294 186 334 c 0,11,12
 186 366 186 366 171.5 384 c 128,-1,13
 157 402 157 402 132 402 c 0,14,15
 106 402 106 402 86 384 c 1,16,-1
 32 390 l 1,17,-1
 42 584 l 1,18,-1
 225 584 l 1,19,-1
 225 530 l 1,20,-1
 94 530 l 1,21,-1
 90 448 l 1,22,23
 113 456 113 456 134 456 c 0,24,25
 181 456 181 456 210.5 421.5 c 128,-1,26
 240 387 240 387 240 332 c 0,0,1
EndSplineSet
EndChar
StartChar: uni2076
Encoding: 8310 8310 91
Width: 491
VWidth: 1754
Flags: W
LayerCount: 2
Fore
SplineSet
432 534 m 128,-1,1
 432 438 432 438 381.5 380 c 128,-1,2
 331 322 331 322 245 322 c 0,3,4
 154 322 154 322 107 385.5 c 128,-1,5
 60 449 60 449 60 564 c 0,6,7
 60 686 60 686 121 804 c 128,-1,8
 182 922 182 922 289 1005 c 1,9,-1
 343 930 l 1,10,11
 302 897 302 897 260.5 844 c 128,-1,12
 219 791 219 791 202 745 c 1,13,14
 219 747 219 747 245 747 c 0,15,16
 331 747 331 747 381.5 688.5 c 128,-1,0
 432 630 432 630 432 534 c 128,-1,1
339 535.5 m 128,-1,18
 339 588 339 588 312.5 623 c 128,-1,19
 286 658 286 658 245 658 c 128,-1,20
 204 658 204 658 177.5 625.5 c 128,-1,21
 151 593 151 593 151 545 c 0,22,23
 151 487 151 487 176.5 451.5 c 128,-1,24
 202 416 202 416 245 416 c 128,-1,25
 288 416 288 416 313.5 449.5 c 128,-1,17
 339 483 339 483 339 535.5 c 128,-1,18
EndSplineSet
EndChar
StartChar: uni2077
Encoding: 8311 8311 92
Width: 412
VWidth: 1754
Flags: W
LayerCount: 2
Fore
SplineSet
392 908 m 1,0,1
 306 807 306 807 250 647 c 1,2,3
 204 510 204 510 197 334 c 1,4,-1
 103 334 l 1,5,-1
 103 348 l 2,6,7
 103 459 103 459 142 615 c 1,8,9
 181 762 181 762 272 908 c 1,10,-1
 21 908 l 1,11,-1
 21 1000 l 1,12,-1
 392 1000 l 1,13,-1
 392 908 l 1,0,1
EndSplineSet
EndChar
StartChar: uni2078
Encoding: 8312 8312 93
Width: 263
Flags: W
LayerCount: 2
Fore
SplineSet
240 310 m 0,0,1
 240 249 240 249 203 214 c 1,2,3
 177 188 177 188 132 188 c 0,4,5
 76 188 76 188 48 229 c 0,6,7
 23 264 23 264 23 310 c 0,8,9
 23 370 23 370 60 406 c 1,10,11
 28 440 28 440 28 487 c 0,12,13
 28 532 28 532 57 561.5 c 128,-1,14
 86 591 86 591 132 591 c 0,15,16
 177 591 177 591 205.5 561.5 c 128,-1,17
 234 532 234 532 234 487 c 0,18,19
 234 438 234 438 203 406 c 1,20,21
 240 372 240 372 240 310 c 0,0,1
180 487 m 0,22,23
 180 508 180 508 166.5 522 c 128,-1,24
 153 536 153 536 132 536 c 256,25,26
 111 536 111 536 97 522 c 128,-1,27
 83 508 83 508 83 487 c 0,28,29
 83 464 83 464 96.5 449.5 c 128,-1,30
 110 435 110 435 132 435 c 0,31,32
 153 435 153 435 166.5 449.5 c 128,-1,33
 180 464 180 464 180 487 c 0,22,23
187 310 m 0,34,35
 187 341 187 341 172 360 c 128,-1,36
 157 379 157 379 132.5 379 c 128,-1,37
 108 379 108 379 93 360 c 128,-1,38
 78 341 78 341 78 310 c 0,39,40
 78 280 78 280 93 261.5 c 128,-1,41
 108 243 108 243 132.5 243 c 128,-1,42
 157 243 157 243 172 261.5 c 128,-1,43
 187 280 187 280 187 310 c 0,34,35
EndSplineSet
EndChar
StartChar: uni2079
Encoding: 8313 8313 94
Width: 450
VWidth: 1754
Flags: W
LayerCount: 2
Fore
SplineSet
411 774 m 0,0,1
 411 651 411 651 351 535.5 c 128,-1,2
 291 420 291 420 182 334 c 1,3,-1
 128 409 l 1,4,5
 171 442 171 442 211.5 495 c 128,-1,6
 252 548 252 548 269 596 c 1,7,8
 254 593 254 593 226 593 c 0,9,10
 140 593 140 593 89.5 650 c 128,-1,11
 39 707 39 707 39 805 c 0,12,13
 39 899 39 899 89.5 955.5 c 128,-1,14
 140 1012 140 1012 226 1012 c 0,15,16
 411 1012 411 1012 411 774 c 0,0,1
320 795 m 0,17,18
 320 850 320 850 294.5 884 c 128,-1,19
 269 918 269 918 226 918 c 256,20,21
 183 918 183 918 158.5 887 c 128,-1,22
 134 856 134 856 134 805 c 0,23,24
 134 750 134 750 158.5 718.5 c 128,-1,25
 183 687 183 687 226 687 c 256,26,27
 269 687 269 687 294.5 716 c 128,-1,28
 320 745 320 745 320 795 c 0,17,18
EndSplineSet
EndChar
StartChar: uni2080
Encoding: 8320 8320 95
Width: 510
VWidth: 1754
Flags: W
LayerCount: 2
Fore
SplineSet
450 334 m 0,0,1
 450 187 450 187 413 103 c 1,2,3
 367 -12 367 -12 257 -12 c 0,4,5
 197 -12 197 -12 160 15.5 c 128,-1,6
 123 43 123 43 98 103 c 0,7,8
 60 189 60 189 60 334 c 0,9,10
 60 483 60 483 98 567 c 0,11,12
 124 625 124 625 161.5 651.5 c 128,-1,13
 199 678 199 678 257 678 c 128,-1,14
 315 678 315 678 351 651.5 c 128,-1,15
 387 625 387 625 413 564 c 0,16,17
 450 478 450 478 450 334 c 0,0,1
360 334 m 0,18,19
 360 426 360 426 339 500 c 0,20,21
 315 584 315 584 256 584 c 128,-1,22
 197 584 197 584 173 502 c 1,23,24
 151 433 151 433 151 332 c 0,25,26
 151 248 151 248 173 163 c 0,27,28
 195 82 195 82 257 82 c 0,29,30
 315 82 315 82 339 163 c 0,31,32
 360 231 360 231 360 334 c 0,18,19
EndSplineSet
EndChar
StartChar: uni2081
Encoding: 8321 8321 96
Width: 151
Flags: W
LayerCount: 2
Fore
SplineSet
116 0 m 1,0,-1
 60 0 l 1,1,-1
 60 319 l 1,2,-1
 35 319 l 1,3,-1
 35 362 l 1,4,5
 67 364 67 364 79 389 c 1,6,-1
 116 389 l 1,7,-1
 116 0 l 1,0,-1
EndSplineSet
EndChar
StartChar: uni2082
Encoding: 8322 8322 97
Width: 263
Flags: W
LayerCount: 2
Fore
SplineSet
240 0 m 1,0,-1
 23 0 l 1,1,2
 26 63 26 63 42 107 c 1,3,4
 66 167 66 167 105 203 c 0,5,6
 121 217 121 217 154 240 c 0,7,8
 174 254 174 254 180.5 263.5 c 128,-1,9
 187 273 187 273 187 287 c 0,10,11
 187 309 187 309 171 325 c 128,-1,12
 155 341 155 341 132.5 341 c 128,-1,13
 110 341 110 341 94 325 c 128,-1,14
 78 309 78 309 78 287 c 1,15,-1
 23 287 l 1,16,17
 24 333 24 333 55 364.5 c 128,-1,18
 86 396 86 396 132 396 c 0,19,20
 177 396 177 396 208.5 364 c 128,-1,21
 240 332 240 332 240 287 c 0,22,23
 240 241 240 241 207 210 c 1,24,25
 199 205 199 205 195 201 c 2,26,-1
 181 191 l 1,27,-1
 168 181 l 1,28,-1
 152 171 l 1,29,30
 134 157 134 157 116.5 133 c 128,-1,31
 99 109 99 109 91 85 c 0,32,33
 87 76 87 76 83 55 c 1,34,-1
 240 55 l 1,35,-1
 240 0 l 1,0,-1
EndSplineSet
EndChar
StartChar: uni2083
Encoding: 8323 8323 98
Width: 263
Flags: W
LayerCount: 2
Fore
SplineSet
240 105 m 0,0,1
 240 57 240 57 209.5 25 c 128,-1,2
 179 -7 179 -7 132.5 -7 c 128,-1,3
 86 -7 86 -7 55.5 24 c 128,-1,4
 25 55 25 55 23 103 c 1,5,-1
 78 103 l 1,6,7
 80 79 80 79 95 63.5 c 128,-1,8
 110 48 110 48 132 48 c 0,9,10
 156 48 156 48 171.5 64.5 c 128,-1,11
 187 81 187 81 187 105 c 0,12,13
 187 136 187 136 172 158 c 128,-1,14
 157 180 157 180 136 180 c 2,15,-1
 109 180 l 1,16,-1
 109 233 l 1,17,-1
 132 233 l 2,18,19
 148 233 148 233 161 249 c 0,20,21
 177 267 177 267 177 292 c 0,22,23
 177 315 177 315 165 328 c 128,-1,24
 153 341 153 341 132 341 c 0,25,26
 94 341 94 341 90 301 c 1,27,-1
 35 307 l 1,28,29
 39 347 39 347 66.5 371.5 c 128,-1,30
 94 396 94 396 132 396 c 0,31,32
 174 396 174 396 202 367 c 128,-1,33
 230 338 230 338 230 296 c 0,34,35
 230 248 230 248 195 207 c 1,36,37
 240 167 240 167 240 105 c 0,0,1
EndSplineSet
EndChar
StartChar: uni2084
Encoding: 8324 8324 99
Width: 493
VWidth: 1754
Flags: W
LayerCount: 2
Fore
SplineSet
433 161 m 1,0,-1
 392 161 l 1,1,-1
 392 0 l 1,2,-1
 296 0 l 1,3,-1
 296 161 l 1,4,-1
 21 161 l 1,5,-1
 21 230 l 1,6,-1
 296 666 l 1,7,-1
 392 666 l 1,8,-1
 392 250 l 1,9,-1
 433 250 l 1,10,-1
 433 161 l 1,0,-1
296 250 m 1,11,-1
 296 500 l 1,12,-1
 139 250 l 1,13,-1
 296 250 l 1,11,-1
EndSplineSet
EndChar
StartChar: uni2085
Encoding: 8325 8325 100
Width: 450
VWidth: 1754
Flags: W
LayerCount: 2
Fore
SplineSet
411 235 m 0,0,1
 411 129 411 129 351 58.5 c 128,-1,2
 291 -12 291 -12 202 -12 c 0,3,4
 115 -12 115 -12 39 46 c 1,5,-1
 103 115 l 1,6,7
 149 82 149 82 194 82 c 0,8,9
 247 82 247 82 283 126 c 128,-1,10
 319 170 319 170 319 238 c 0,11,12
 319 293 319 293 294 324 c 128,-1,13
 269 355 269 355 226 355 c 0,14,15
 181 355 181 355 147 324 c 1,16,-1
 55 334 l 1,17,-1
 72 666 l 1,18,-1
 385 666 l 1,19,-1
 385 574 l 1,20,-1
 161 574 l 1,21,-1
 154 433 l 1,22,23
 193 447 193 447 230 447 c 0,24,25
 311 447 311 447 361 388 c 128,-1,26
 411 329 411 329 411 235 c 0,0,1
EndSplineSet
EndChar
StartChar: uni2086
Encoding: 8326 8326 101
Width: 491
VWidth: 1754
Flags: W
LayerCount: 2
Fore
SplineSet
432 200 m 128,-1,1
 432 104 432 104 381.5 46 c 128,-1,2
 331 -12 331 -12 245 -12 c 0,3,4
 154 -12 154 -12 107 51.5 c 128,-1,5
 60 115 60 115 60 230 c 0,6,7
 60 352 60 352 121 470 c 128,-1,8
 182 588 182 588 289 671 c 1,9,-1
 343 596 l 1,10,11
 302 563 302 563 260.5 510 c 128,-1,12
 219 457 219 457 202 411 c 1,13,14
 219 413 219 413 245 413 c 0,15,16
 331 413 331 413 381.5 354.5 c 128,-1,0
 432 296 432 296 432 200 c 128,-1,1
339 201.5 m 128,-1,18
 339 254 339 254 312.5 289 c 128,-1,19
 286 324 286 324 245 324 c 128,-1,20
 204 324 204 324 177.5 291.5 c 128,-1,21
 151 259 151 259 151 211 c 0,22,23
 151 153 151 153 176.5 117.5 c 128,-1,24
 202 82 202 82 245 82 c 128,-1,25
 288 82 288 82 313.5 115.5 c 128,-1,17
 339 149 339 149 339 201.5 c 128,-1,18
EndSplineSet
EndChar
StartChar: uni2087
Encoding: 8327 8327 102
Width: 412
VWidth: 1754
Flags: W
LayerCount: 2
Fore
SplineSet
392 574 m 1,0,1
 306 473 306 473 250 313 c 1,2,3
 204 176 204 176 197 0 c 1,4,-1
 103 0 l 1,5,-1
 103 14 l 2,6,7
 103 125 103 125 142 281 c 1,8,9
 181 428 181 428 272 574 c 1,10,-1
 21 574 l 1,11,-1
 21 666 l 1,12,-1
 392 666 l 1,13,-1
 392 574 l 1,0,1
EndSplineSet
EndChar
StartChar: uni2088
Encoding: 8328 8328 103
Width: 450
VWidth: 1754
Flags: W
LayerCount: 2
Fore
SplineSet
411 197 m 0,0,1
 411 93 411 93 348 33 c 1,2,3
 303 -12 303 -12 226 -12 c 0,4,5
 130 -12 130 -12 82 58 c 0,6,7
 39 118 39 118 39 197 c 0,8,9
 39 300 39 300 103 361 c 1,10,11
 48 419 48 419 48 500 c 0,12,13
 48 577 48 577 97.5 627.5 c 128,-1,14
 147 678 147 678 226 678 c 0,15,16
 303 678 303 678 352 627.5 c 128,-1,17
 401 577 401 577 401 500 c 0,18,19
 401 416 401 416 348 361 c 1,20,21
 411 303 411 303 411 197 c 0,0,1
308 500 m 0,22,23
 308 536 308 536 285 560 c 128,-1,24
 262 584 262 584 226 584 c 256,25,26
 190 584 190 584 166 560 c 128,-1,27
 142 536 142 536 142 500 c 0,28,29
 142 461 142 461 165 436 c 128,-1,30
 188 411 188 411 226 411 c 0,31,32
 262 411 262 411 285 436 c 128,-1,33
 308 461 308 461 308 500 c 0,22,23
320 197 m 0,34,35
 320 250 320 250 294.5 282.5 c 128,-1,36
 269 315 269 315 227 315 c 128,-1,37
 185 315 185 315 159.5 282.5 c 128,-1,38
 134 250 134 250 134 197 c 0,39,40
 134 146 134 146 159.5 114 c 128,-1,41
 185 82 185 82 227 82 c 128,-1,42
 269 82 269 82 294.5 114 c 128,-1,43
 320 146 320 146 320 197 c 0,34,35
EndSplineSet
EndChar
StartChar: uni2089
Encoding: 8329 8329 104
Width: 450
VWidth: 1754
Flags: W
LayerCount: 2
Fore
SplineSet
411 440 m 0,0,1
 411 317 411 317 351 201.5 c 128,-1,2
 291 86 291 86 182 0 c 1,3,-1
 128 75 l 1,4,5
 171 108 171 108 211.5 161 c 128,-1,6
 252 214 252 214 269 262 c 1,7,8
 254 259 254 259 226 259 c 0,9,10
 140 259 140 259 89.5 316 c 128,-1,11
 39 373 39 373 39 471 c 0,12,13
 39 565 39 565 89.5 621.5 c 128,-1,14
 140 678 140 678 226 678 c 0,15,16
 411 678 411 678 411 440 c 0,0,1
320 461 m 0,17,18
 320 516 320 516 294.5 550 c 128,-1,19
 269 584 269 584 226 584 c 256,20,21
 183 584 183 584 158.5 553 c 128,-1,22
 134 522 134 522 134 471 c 0,23,24
 134 416 134 416 158.5 384.5 c 128,-1,25
 183 353 183 353 226 353 c 256,26,27
 269 353 269 353 294.5 382 c 128,-1,28
 320 411 320 411 320 461 c 0,17,18
EndSplineSet
EndChar
